<svg version="1.1" viewBox="0.0 0.0 960.0 540.0" fill="none" stroke="none" stroke-linecap="square" stroke-miterlimit="10" xmlns:xlink="http://www.w3.org/1999/xlink" xmlns="http://www.w3.org/2000/svg"><clipPath id="gb37777a647_0_172.0"><path d="m0 0l960.0 0l0 540.0l-960.0 0l0 -540.0z" clip-rule="nonzero"/></clipPath><g clip-path="url(#gb37777a647_0_172.0)"><path fill="#ffffff" d="m0 0l960.0 0l0 540.0l-960.0 0z" fill-rule="evenodd"/><path fill="#eeeeee" d="m9.635171 18.688345l0 0c0 -5.946497 4.820588 -10.767085 10.767085 -10.767085l790.27686 0c2.8555908 0 5.5942383 1.1343861 7.6134644 3.1536064c2.019226 2.0192204 3.1535645 4.7578707 3.1535645 7.6134787l0 335.82016c0 5.9465027 -4.8205566 10.76709 -10.767029 10.76709l-790.27686 0c-5.946497 0 -10.767085 -4.820587 -10.767085 -10.76709z" fill-rule="evenodd"/><path stroke="#595959" stroke-width="1.0" stroke-linejoin="round" stroke-linecap="butt" d="m9.635171 18.688345l0 0c0 -5.946497 4.820588 -10.767085 10.767085 -10.767085l790.27686 0c2.8555908 0 5.5942383 1.1343861 7.6134644 3.1536064c2.019226 2.0192204 3.1535645 4.7578707 3.1535645 7.6134787l0 335.82016c0 5.9465027 -4.8205566 10.76709 -10.767029 10.76709l-790.27686 0c-5.946497 0 -10.767085 -4.820587 -10.767085 -10.76709z" fill-rule="evenodd"/><path fill="#ffffff" d="m9.635171 40.11811l811.811 0l0 307.21262l-811.811 0z" fill-rule="evenodd"/><path stroke="#595959" stroke-width="1.0" stroke-linejoin="round" stroke-linecap="butt" d="m9.635171 40.11811l811.811 0l0 307.21262l-811.811 0z" fill-rule="evenodd"/><path fill="#ffffff" d="m33.620266 12.3044615l592.12604 0l0 22.015747l-592.12604 0z" fill-rule="evenodd"/><path stroke="#595959" stroke-width="1.0" stroke-linejoin="round" stroke-linecap="butt" d="m33.620266 12.3044615l592.12604 0l0 22.015747l-592.12604 0z" fill-rule="evenodd"/><path fill="#000000" d="m43.72964 27.832336l0 -8.546875l0.984375 0l0 2.328125l-0.046875 1.375l0.03125 0q0.453125 -0.484375 0.96875 -0.796875q0.53125 -0.328125 1.21875 -0.328125q1.03125 0 1.515625 0.59375q0.5 0.59375 0.5 1.75l0 3.625l-0.984375 0l0 -3.484375q0 -0.828125 -0.3125 -1.234375q-0.3125 -0.40625 -1.03125 -0.40625q-0.265625 0 -0.5 0.078125q-0.21875 0.0625 -0.4375 0.1875q-0.203125 0.125 -0.4375 0.328125q-0.21875 0.203125 -0.484375 0.46875l0 4.0625l-0.984375 0zm10.825058 0.140625q-0.640625 0 -1.078125 -0.171875q-0.421875 -0.171875 -0.6875 -0.484375q-0.265625 -0.328125 -0.390625 -0.765625q-0.109375 -0.453125 -0.109375 -0.984375l0 -2.765625l-1.640625 0l0 -0.734375l1.6875 -0.0625l0.125 -1.875l0.8125 0l0 1.875l2.875 0l0 0.796875l-2.875 0l0 2.78125q0 0.390625 0.0625 0.6875q0.078125 0.296875 0.25 0.5q0.171875 0.203125 0.453125 0.3125q0.296875 0.09375 0.71875 0.09375q0.421875 0 0.75 -0.0625q0.34375 -0.078125 0.65625 -0.203125l0.203125 0.71875q-0.390625 0.140625 -0.828125 0.234375q-0.4375 0.109375 -0.984375 0.109375zm7.200058 0q-0.640625 0 -1.078125 -0.171875q-0.421875 -0.171875 -0.6875 -0.484375q-0.265625 -0.328125 -0.390625 -0.765625q-0.109375 -0.453125 -0.109375 -0.984375l0 -2.765625l-1.640625 0l0 -0.734375l1.6875 -0.0625l0.125 -1.875l0.8125 0l0 1.875l2.875 0l0 0.796875l-2.875 0l0 2.78125q0 0.390625 0.0625 0.6875q0.078125 0.296875 0.25 0.5q0.171875 0.203125 0.453125 0.3125q0.296875 0.09375 0.71875 0.09375q0.421875 0 0.75 -0.0625q0.34375 -0.078125 0.65625 -0.203125l0.203125 0.71875q-0.390625 0.140625 -0.828125 0.234375q-0.4375 0.109375 -0.984375 0.109375zm3.5750542 2.3125l0 -8.28125l0.828125 0l0.078125 0.734375l0.03125 0q0.40625 -0.375 0.9375 -0.625q0.546875 -0.25 1.078125 -0.25q0.59375 0 1.046875 0.203125q0.453125 0.203125 0.75 0.59375q0.3125 0.390625 0.46875 0.9375q0.15625 0.546875 0.15625 1.234375q0 0.75 -0.21875 1.328125q-0.21875 0.578125 -0.59375 0.984375q-0.359375 0.40625 -0.84375 0.625q-0.46875 0.203125 -1.0 0.203125q-0.40625 0 -0.890625 -0.1875q-0.46875 -0.203125 -0.84375 -0.5625l-0.046875 0l0.046875 1.09375l0 1.96875l-0.984375 0zm2.546875 -3.140625q0.796875 0 1.296875 -0.609375q0.5 -0.609375 0.5 -1.703125q0 -0.484375 -0.09375 -0.875q-0.09375 -0.390625 -0.296875 -0.671875q-0.1875 -0.296875 -0.5 -0.4375q-0.3125 -0.15625 -0.75 -0.15625q-0.375 0 -0.8125 0.203125q-0.4375 0.203125 -0.90625 0.671875l0 2.890625q0.421875 0.375 0.84375 0.53125q0.421875 0.15625 0.71875 0.15625zm7.137558 -3.46875q-0.40625 0 -0.6875 -0.265625q-0.28125 -0.28125 -0.28125 -0.734375q0 -0.453125 0.28125 -0.734375q0.28125 -0.296875 0.6875 -0.296875q0.421875 0 0.703125 0.296875q0.28125 0.28125 0.28125 0.734375q0 0.453125 -0.28125 0.734375q-0.28125 0.265625 -0.703125 0.265625zm0 4.296875q-0.40625 0 -0.6875 -0.265625q-0.28125 -0.28125 -0.28125 -0.734375q0 -0.453125 0.28125 -0.734375q0.28125 -0.296875 0.6875 -0.296875q0.421875 0 0.703125 0.296875q0.28125 0.28125 0.28125 0.734375q0 0.453125 -0.28125 0.734375q-0.28125 0.265625 -0.703125 0.265625zm4.793808 1.78125l3.9375 -10.4375l0.890625 0l-3.9375 10.4375l-0.890625 0zm7.200058 0l3.9375 -10.4375l0.890625 0l-3.9375 10.4375l-0.890625 0zm10.903183 -1.78125q-0.9375 0 -1.4375 -0.515625q-0.484375 -0.53125 -0.484375 -1.578125l0 -5.78125l-2.078125 0l0 -0.8125l3.0625 0l0 6.65625q0 0.65625 0.3125 0.9375q0.3125 0.28125 0.828125 0.28125q0.515625 0 1.09375 -0.265625l0.25 0.734375q-0.40625 0.171875 -0.75 0.25q-0.328125 0.09375 -0.796875 0.09375zm5.903183 0q-0.5625 0 -1.09375 -0.203125q-0.515625 -0.203125 -0.921875 -0.59375q-0.390625 -0.390625 -0.625 -0.953125q-0.234375 -0.578125 -0.234375 -1.296875q0 -0.734375 0.234375 -1.296875q0.234375 -0.578125 0.625 -0.96875q0.40625 -0.390625 0.921875 -0.59375q0.53125 -0.203125 1.09375 -0.203125q0.578125 0 1.09375 0.203125q0.53125 0.203125 0.921875 0.59375q0.40625 0.390625 0.640625 0.96875q0.234375 0.5625 0.234375 1.296875q0 0.71875 -0.234375 1.296875q-0.234375 0.5625 -0.640625 0.953125q-0.390625 0.390625 -0.921875 0.59375q-0.515625 0.203125 -1.09375 0.203125zm0 -0.8125q0.421875 0 0.765625 -0.15625q0.34375 -0.171875 0.59375 -0.453125q0.25 -0.296875 0.375 -0.703125q0.125 -0.421875 0.125 -0.921875q0 -0.5 -0.125 -0.90625q-0.125 -0.421875 -0.375 -0.71875q-0.25 -0.3125 -0.59375 -0.46875q-0.34375 -0.15625 -0.765625 -0.15625q-0.40625 0 -0.75 0.15625q-0.34375 0.15625 -0.59375 0.46875q-0.25 0.296875 -0.390625 0.71875q-0.125 0.40625 -0.125 0.90625q0 0.5 0.125 0.921875q0.140625 0.40625 0.390625 0.703125q0.25 0.28125 0.59375 0.453125q0.34375 0.15625 0.75 0.15625zm7.762558 0.8125q-0.6875 0 -1.28125 -0.203125q-0.578125 -0.203125 -1.015625 -0.59375q-0.421875 -0.390625 -0.671875 -0.953125q-0.234375 -0.578125 -0.234375 -1.296875q0 -0.734375 0.25 -1.296875q0.265625 -0.578125 0.703125 -0.96875q0.453125 -0.390625 1.046875 -0.59375q0.59375 -0.203125 1.265625 -0.203125q0.71875 0 1.234375 0.25q0.515625 0.25 0.890625 0.59375l-0.5 0.640625q-0.359375 -0.3125 -0.75 -0.484375q-0.390625 -0.1875 -0.84375 -0.1875q-0.5 0 -0.921875 0.15625q-0.421875 0.15625 -0.71875 0.46875q-0.296875 0.296875 -0.46875 0.71875q-0.15625 0.40625 -0.15625 0.90625q0 0.5 0.15625 0.921875q0.15625 0.40625 0.453125 0.703125q0.296875 0.28125 0.703125 0.453125q0.421875 0.15625 0.921875 0.15625q0.546875 0 0.984375 -0.203125q0.453125 -0.21875 0.828125 -0.53125l0.4375 0.640625q-0.5 0.421875 -1.09375 0.671875q-0.578125 0.234375 -1.21875 0.234375zm5.996933 0q-0.40625 0 -0.765625 -0.109375q-0.359375 -0.109375 -0.640625 -0.3125q-0.265625 -0.21875 -0.421875 -0.515625q-0.15625 -0.3125 -0.15625 -0.71875q0 -0.484375 0.234375 -0.84375q0.234375 -0.375 0.734375 -0.640625q0.515625 -0.265625 1.3125 -0.421875q0.8125 -0.171875 1.953125 -0.28125q-0.015625 -0.296875 -0.109375 -0.5625q-0.078125 -0.265625 -0.265625 -0.453125q-0.171875 -0.203125 -0.46875 -0.3125q-0.296875 -0.125 -0.71875 -0.125q-0.5625 0 -1.09375 0.21875q-0.53125 0.21875 -0.9375 0.46875l-0.390625 -0.671875q0.21875 -0.140625 0.515625 -0.28125q0.296875 -0.15625 0.625 -0.265625q0.328125 -0.125 0.703125 -0.203125q0.375 -0.078125 0.75 -0.078125q1.203125 0 1.78125 0.65625q0.59375 0.640625 0.59375 1.734375l0 3.578125l-0.8125 0l-0.078125 -0.796875l-0.046875 0q-0.484375 0.390625 -1.078125 0.671875q-0.59375 0.265625 -1.21875 0.265625zm0.265625 -0.78125q0.5 0 0.984375 -0.21875q0.484375 -0.234375 1.0 -0.65625l0 -1.53125q-0.9375 0.078125 -1.578125 0.203125q-0.625 0.125 -1.0 0.3125q-0.375 0.1875 -0.53125 0.421875q-0.15625 0.234375 -0.15625 0.53125q0 0.25 0.09375 0.421875q0.109375 0.171875 0.28125 0.296875q0.1875 0.109375 0.421875 0.171875q0.234375 0.046875 0.484375 0.046875zm8.871933 0.78125q-0.9375 0 -1.4375 -0.515625q-0.484375 -0.53125 -0.484375 -1.578125l0 -5.78125l-2.078125 0l0 -0.8125l3.0625 0l0 6.65625q0 0.65625 0.3125 0.9375q0.3125 0.28125 0.828125 0.28125q0.515625 0 1.0937576 -0.265625l0.25 0.734375q-0.40625763 0.171875 -0.7500076 0.25q-0.328125 0.09375 -0.796875 0.09375zm3.4188156 -0.140625l0 -8.546875l0.984375 0l0 2.328125l-0.046875 1.375l0.03125 0q0.453125 -0.484375 0.96875 -0.796875q0.53125 -0.328125 1.21875 -0.328125q1.03125 0 1.515625 0.59375q0.5 0.59375 0.5 1.75l0 3.625l-0.984375 0l0 -3.484375q0 -0.828125 -0.3125 -1.234375q-0.3125 -0.40625 -1.03125 -0.40625q-0.265625 0 -0.5 0.078125q-0.21875 0.0625 -0.4375 0.1875q-0.203125 0.125 -0.4375 0.328125q-0.21875 0.203125 -0.484375 0.46875l0 4.0625l-0.984375 0zm9.684433 0.140625q-0.5625 0 -1.09375 -0.203125q-0.515625 -0.203125 -0.921875 -0.59375q-0.390625 -0.390625 -0.625 -0.953125q-0.234375 -0.578125 -0.234375 -1.296875q0 -0.734375 0.234375 -1.296875q0.234375 -0.578125 0.625 -0.96875q0.40625 -0.390625 0.921875 -0.59375q0.53125 -0.203125 1.09375 -0.203125q0.578125 0 1.09375 0.203125q0.53125 0.203125 0.921875 0.59375q0.40625 0.390625 0.640625 0.96875q0.234375 0.5625 0.234375 1.296875q0 0.71875 -0.234375 1.296875q-0.234375 0.5625 -0.640625 0.953125q-0.390625 0.390625 -0.921875 0.59375q-0.515625 0.203125 -1.09375 0.203125zm0 -0.8125q0.421875 0 0.765625 -0.15625q0.34375 -0.171875 0.59375 -0.453125q0.25 -0.296875 0.375 -0.703125q0.125 -0.421875 0.125 -0.921875q0 -0.5 -0.125 -0.90625q-0.125 -0.421875 -0.375 -0.71875q-0.25 -0.3125 -0.59375 -0.46875q-0.34375 -0.15625 -0.765625 -0.15625q-0.40625 0 -0.75 0.15625q-0.34375 0.15625 -0.59375 0.46875q-0.25 0.296875 -0.390625 0.71875q-0.125 0.40625 -0.125 0.90625q0 0.5 0.125 0.921875q0.140625 0.40625 0.390625 0.703125q0.25 0.28125 0.59375 0.453125q0.34375 0.15625 0.75 0.15625zm7.325058 0.8125q-0.859375 0 -1.59375 -0.265625q-0.734375 -0.265625 -1.265625 -0.640625l0.453125 -0.65625q0.5 0.359375 1.109375 0.578125q0.609375 0.21875 1.421875 0.21875q0.734375 0 1.09375 -0.265625q0.375 -0.265625 0.375 -0.640625q0 -0.171875 -0.0625 -0.3125q-0.046875 -0.140625 -0.25 -0.265625q-0.203125 -0.140625 -0.5625 -0.265625q-0.359375 -0.125 -0.953125 -0.234375q-1.125 -0.25 -1.703125 -0.640625q-0.5625 -0.40625 -0.5625 -1.0625q0 -0.359375 0.15625 -0.65625q0.15625 -0.3125 0.453125 -0.53125q0.3125 -0.21875 0.75 -0.34375q0.453125 -0.125 1.0625 -0.125q0.671875 0 1.296875 0.21875q0.625 0.21875 1.046875 0.515625l-0.46875 0.640625q-0.421875 -0.28125 -0.921875 -0.4375q-0.484375 -0.171875 -1.046875 -0.171875q-0.734375 0 -1.046875 0.25q-0.296875 0.25 -0.296875 0.578125q0 0.390625 0.390625 0.59375q0.40625 0.1875 1.3125 0.390625q0.71875 0.15625 1.1875 0.328125q0.46875 0.171875 0.734375 0.390625q0.28125 0.21875 0.375 0.484375q0.109375 0.25 0.109375 0.59375q0 0.359375 -0.171875 0.671875q-0.171875 0.3125 -0.5 0.5625q-0.328125 0.234375 -0.8125 0.359375q-0.484375 0.140625 -1.109375 0.140625zm8.215683 0q-0.640625 0 -1.078125 -0.171875q-0.421875 -0.171875 -0.6875 -0.484375q-0.265625 -0.328125 -0.390625 -0.765625q-0.109375 -0.453125 -0.109375 -0.984375l0 -2.765625l-1.640625 0l0 -0.734375l1.6875 -0.0625l0.125 -1.875l0.8125 0l0 1.875l2.875 0l0 0.796875l-2.875 0l0 2.78125q0 0.390625 0.0625 0.6875q0.078125 0.296875 0.25 0.5q0.171875 0.203125 0.453125 0.3125q0.296875 0.09375 0.71875 0.09375q0.421875 0 0.75 -0.0625q0.34375 -0.078125 0.65625 -0.203125l0.203125 0.71875q-0.390625 0.140625 -0.828125 0.234375q-0.4375 0.109375 -0.984375 0.109375zm6.059433 -4.296875q-0.40625 0 -0.6875 -0.265625q-0.28125 -0.28125 -0.28125 -0.734375q0 -0.453125 0.28125 -0.734375q0.28125 -0.296875 0.6875 -0.296875q0.421875 0 0.703125 0.296875q0.28125 0.28125 0.28125 0.734375q0 0.453125 -0.28125 0.734375q-0.28125 0.265625 -0.703125 0.265625zm0 4.296875q-0.40625 0 -0.6875 -0.265625q-0.28125 -0.28125 -0.28125 -0.734375q0 -0.453125 0.28125 -0.734375q0.28125 -0.296875 0.6875 -0.296875q0.421875 0 0.703125 0.296875q0.28125 0.28125 0.28125 0.734375q0 0.453125 -0.28125 0.734375q-0.28125 0.265625 -0.703125 0.265625zm8.028183 -0.140625l0 -2.109375l-3.953125 0l0 -0.65625l3.828125 -4.890625l1.0625 0l0 4.75l1.1875 0l0 0.796875l-1.1875 0l0 2.109375l-0.9375 0zm-2.859375 -2.90625l2.859375 0l0 -2.375q0 -0.3125 0.015625 -0.671875q0.015625 -0.375 0.03125 -0.6875l-0.046875 0q-0.1875 0.28125 -0.390625 0.5625q-0.203125 0.28125 -0.390625 0.5625l-2.078125 2.609375zm6.512558 2.90625l0 -0.59375q0.96875 -0.859375 1.71875 -1.546875q0.75 -0.703125 1.265625 -1.28125q0.515625 -0.59375 0.765625 -1.09375q0.265625 -0.5 0.265625 -0.984375q0 -0.65625 -0.40625 -1.078125q-0.40625 -0.421875 -1.25 -0.421875q-0.546875 0 -1.015625 0.28125q-0.453125 0.265625 -0.828125 0.640625l-0.5625 -0.5625q0.515625 -0.515625 1.109375 -0.828125q0.59375 -0.328125 1.40625 -0.328125q0.578125 0 1.03125 0.171875q0.46875 0.15625 0.796875 0.453125q0.328125 0.28125 0.5 0.703125q0.171875 0.421875 0.171875 0.921875q0 0.546875 -0.265625 1.09375q-0.25 0.546875 -0.71875 1.125q-0.46875 0.578125 -1.125 1.21875q-0.640625 0.625 -1.421875 1.328125q0.359375 -0.015625 0.71875 -0.046875q0.359375 -0.03125 0.71875 -0.03125l2.515625 0l0 0.859375l-5.390625 0zm9.918808 0.140625q-1.28125 0 -2.015625 -1.03125q-0.71875 -1.046875 -0.71875 -2.96875q0 -1.921875 0.71875 -2.921875q0.734375 -1.015625 2.015625 -1.015625q1.296875 0 2.015625 1.015625q0.734375 1.0 0.734375 2.921875q0 1.921875 -0.734375 2.96875q-0.71875 1.03125 -2.015625 1.03125zm0 -0.78125q0.8125 0 1.3125 -0.78125q0.515625 -0.78125 0.515625 -2.4375q0 -0.828125 -0.140625 -1.421875q-0.125 -0.59375 -0.375 -0.96875q-0.234375 -0.390625 -0.578125 -0.578125q-0.328125 -0.1875 -0.734375 -0.1875q-0.390625 0 -0.734375 0.1875q-0.328125 0.1875 -0.578125 0.578125q-0.234375 0.375 -0.375 0.96875q-0.125 0.59375 -0.125 1.421875q0 1.65625 0.5 2.4375q0.515625 0.78125 1.3125 0.78125zm0 -2.484375q-0.296875 0 -0.515625 -0.203125q-0.21875 -0.21875 -0.21875 -0.609375q0 -0.375 0.21875 -0.578125q0.21875 -0.21875 0.515625 -0.21875q0.3125 0 0.53125 0.21875q0.21875 0.203125 0.21875 0.578125q0 0.390625 -0.21875 0.609375q-0.21875 0.203125 -0.53125 0.203125zm7.200058 3.265625q-1.28125 0 -2.015625 -1.03125q-0.71875 -1.046875 -0.71875 -2.96875q0 -1.921875 0.71875 -2.921875q0.734375 -1.015625 2.015625 -1.015625q1.296875 0 2.015625 1.015625q0.734375 1.0 0.734375 2.921875q0 1.921875 -0.734375 2.96875q-0.71875 1.03125 -2.015625 1.03125zm0 -0.78125q0.8125 0 1.3125 -0.78125q0.515625 -0.78125 0.515625 -2.4375q0 -0.828125 -0.140625 -1.421875q-0.125 -0.59375 -0.375 -0.96875q-0.234375 -0.390625 -0.578125 -0.578125q-0.328125 -0.1875 -0.734375 -0.1875q-0.390625 0 -0.734375 0.1875q-0.328125 0.1875 -0.578125 0.578125q-0.234375 0.375 -0.375 0.96875q-0.125 0.59375 -0.125 1.421875q0 1.65625 0.5 2.4375q0.515625 0.78125 1.3125 0.78125zm0 -2.484375q-0.296875 0 -0.515625 -0.203125q-0.21875 -0.21875 -0.21875 -0.609375q0 -0.375 0.21875 -0.578125q0.21875 -0.21875 0.515625 -0.21875q0.3125 0 0.53125 0.21875q0.21875 0.203125 0.21875 0.578125q0 0.390625 -0.21875 0.609375q-0.21875 0.203125 -0.53125 0.203125zm4.793808 5.046875l3.9375 -10.4375l0.890625 0l-3.9375 10.4375l-0.890625 0z" fill-rule="nonzero"/><path fill="#000000" fill-opacity="0.0" d="m31.968504 61.233597l304.0315 0l0 35.46457l-304.0315 0z" fill-rule="evenodd"/><path fill="#000000" d="m47.921627 88.153595l-1.640625 0l0 -10.453125q-0.59375 0.5625 -1.5625 1.140625q-0.953125 0.5625 -1.71875 0.84375l0 -1.59375q1.375 -0.640625 2.40625 -1.5625q1.03125 -0.921875 1.453125 -1.78125l1.0625 0l0 13.40625zm4.203842 -6.59375q0 -2.359375 0.484375 -3.796875q0.484375 -1.453125 1.4375 -2.234375q0.96875 -0.78125 2.421875 -0.78125q1.078125 0 1.890625 0.4375q0.8125 0.421875 1.328125 1.25q0.53125 0.8125 0.828125 1.984375q0.3125 1.15625 0.3125 3.140625q0 2.359375 -0.484375 3.8125q-0.484375 1.4375 -1.453125 2.234375q-0.953125 0.78125 -2.421875 0.78125q-1.921875 0 -3.03125 -1.390625q-1.3125 -1.671875 -1.3125 -5.4375zm1.671875 0q0 3.296875 0.765625 4.390625q0.78125 1.078125 1.90625 1.078125q1.140625 0 1.90625 -1.09375q0.765625 -1.09375 0.765625 -4.375q0 -3.296875 -0.765625 -4.375q-0.765625 -1.078125 -1.921875 -1.078125q-1.125 0 -1.796875 0.953125q-0.859375 1.21875 -0.859375 4.5zm8.516342 2.578125l0 -1.640625l5.031254 0l0 1.640625l-5.031254 0zm16.58768 -0.671875l1.765625 0.453125q-0.5625 2.171875 -2.0 3.328125q-1.4375 1.140625 -3.53125 1.140625q-2.15625 0 -3.515625 -0.875q-1.34375 -0.890625 -2.0625 -2.546875q-0.703125 -1.671875 -0.703125 -3.59375q0 -2.078125 0.796875 -3.625q0.796875 -1.5625 2.265625 -2.359375q1.484375 -0.8125 3.25 -0.8125q2.0 0 3.359375 1.015625q1.375 1.015625 1.90625 2.875l-1.734375 0.40625q-0.46875 -1.453125 -1.359375 -2.109375q-0.875 -0.671875 -2.203125 -0.671875q-1.546875 0 -2.578125 0.734375q-1.03125 0.734375 -1.453125 1.984375q-0.421875 1.234375 -0.421875 2.5625q0 1.703125 0.5 2.96875q0.5 1.265625 1.546875 1.90625q1.046875 0.625 2.265625 0.625q1.484375 0 2.515625 -0.859375q1.03125 -0.859375 1.390625 -2.546875zm3.7385712 4.6875l0 -13.359375l1.640625 0l0 4.796875q1.140625 -1.328125 2.890625 -1.328125q1.078125 0 1.859375 0.421875q0.796875 0.421875 1.140625 1.171875q0.34375 0.75 0.34375 2.171875l0 6.125l-1.640625 0l0 -6.125q0 -1.234375 -0.53125 -1.796875q-0.53125 -0.5625 -1.515625 -0.5625q-0.71875 0 -1.359375 0.390625q-0.640625 0.375 -0.921875 1.015625q-0.265625 0.640625 -0.265625 1.78125l0 5.296875l-1.640625 0zm16.688217 -1.1875q-0.921875 0.765625 -1.765625 1.09375q-0.828125 0.3125 -1.796875 0.3125q-1.59375 0 -2.453125 -0.78125q-0.859375 -0.78125 -0.859375 -1.984375q0 -0.71875 0.328125 -1.296875q0.328125 -0.59375 0.84375 -0.9375q0.53125 -0.359375 1.1875 -0.546875q0.46875 -0.125 1.453125 -0.25q1.984375 -0.234375 2.921875 -0.5625q0.015625 -0.34375 0.015625 -0.421875q0 -1.0 -0.46875 -1.421875q-0.625 -0.546875 -1.875 -0.546875q-1.15625 0 -1.703125 0.40625q-0.546875 0.40625 -0.8125 1.421875l-1.609375 -0.21875q0.21875 -1.015625 0.71875 -1.640625q0.5 -0.640625 1.453125 -0.984375q0.953125 -0.34375 2.1875 -0.34375q1.25 0 2.015625 0.296875q0.78125 0.28125 1.140625 0.734375q0.375 0.4375 0.515625 1.109375q0.078125 0.421875 0.078125 1.515625l0 2.1875q0 2.28125 0.109375 2.890625q0.109375 0.59375 0.40625 1.15625l-1.703125 0q-0.265625 -0.515625 -0.328125 -1.1875zm-0.140625 -3.671875q-0.890625 0.375 -2.671875 0.625q-1.015625 0.140625 -1.4375 0.328125q-0.421875 0.1875 -0.65625 0.53125q-0.21875 0.34375 -0.21875 0.78125q0 0.65625 0.5 1.09375q0.5 0.4375 1.453125 0.4375q0.9375 0 1.671875 -0.40625q0.75 -0.421875 1.09375 -1.140625q0.265625 -0.5625 0.265625 -1.640625l0 -0.609375zm4.188217 4.859375l0 -9.671875l1.46875 0l0 1.46875q0.5625 -1.03125 1.03125 -1.359375q0.484375 -0.328125 1.0625 -0.328125q0.828125 0 1.6875 0.53125l-0.5625 1.515625q-0.609375 -0.359375 -1.203125 -0.359375q-0.546875 0 -0.96875 0.328125q-0.421875 0.328125 -0.609375 0.890625q-0.28125 0.875 -0.28125 1.921875l0 5.0625l-1.625 0zm12.540802 -1.1875q-0.921875 0.765625 -1.765625 1.09375q-0.828125 0.3125 -1.796875 0.3125q-1.59375 0 -2.453125 -0.78125q-0.859375 -0.78125 -0.859375 -1.984375q0 -0.71875 0.328125 -1.296875q0.328125 -0.59375 0.84375 -0.9375q0.53125 -0.359375 1.1875 -0.546875q0.46875 -0.125 1.453125 -0.25q1.984375 -0.234375 2.921875 -0.5625q0.015625 -0.34375 0.015625 -0.421875q0 -1.0 -0.46875 -1.421875q-0.625 -0.546875 -1.875 -0.546875q-1.15625 0 -1.703125 0.40625q-0.546875 0.40625 -0.8125 1.421875l-1.609375 -0.21875q0.21875 -1.015625 0.71875 -1.640625q0.5 -0.640625 1.453125 -0.984375q0.953125 -0.34375 2.1875 -0.34375q1.25 0 2.015625 0.296875q0.78125 0.28125 1.140625 0.734375q0.375 0.4375 0.515625 1.109375q0.078125 0.421875 0.078125 1.515625l0 2.1875q0 2.28125 0.109375 2.890625q0.109375 0.59375 0.40625 1.15625l-1.703125 0q-0.265625 -0.515625 -0.328125 -1.1875zm-0.140625 -3.671875q-0.890625 0.375 -2.671875 0.625q-1.015625 0.140625 -1.4375 0.328125q-0.421875 0.1875 -0.65625 0.53125q-0.21875 0.34375 -0.21875 0.78125q0 0.65625 0.5 1.09375q0.5 0.4375 1.453125 0.4375q0.9375 0 1.671875 -0.40625q0.75 -0.421875 1.09375 -1.140625q0.265625 -0.5625 0.265625 -1.640625l0 -0.609375zm10.516342 1.3125l1.609375 0.21875q-0.265625 1.65625 -1.359375 2.609375q-1.078125 0.9375 -2.671875 0.9375q-1.984375 0 -3.1875 -1.296875q-1.203125 -1.296875 -1.203125 -3.71875q0 -1.578125 0.515625 -2.75q0.515625 -1.171875 1.578125 -1.75q1.0625 -0.59375 2.3125 -0.59375q1.578125 0 2.578125 0.796875q1.0 0.796875 1.28125 2.265625l-1.59375 0.234375q-0.234375 -0.96875 -0.8125 -1.453125q-0.578125 -0.5 -1.390625 -0.5q-1.234375 0 -2.015625 0.890625q-0.78125 0.890625 -0.78125 2.8125q0 1.953125 0.75 2.84375q0.75 0.875 1.953125 0.875q0.96875 0 1.609375 -0.59375q0.65625 -0.59375 0.828125 -1.828125zm6.59375 2.078125l0.234375 1.453125q-0.6875 0.140625 -1.234375 0.140625q-0.890625 0 -1.390625 -0.28125q-0.484375 -0.28125 -0.6875 -0.734375q-0.203125 -0.46875 -0.203125 -1.9375l0 -5.578125l-1.203125 0l0 -1.265625l1.203125 0l0 -2.390625l1.625 -0.984375l0 3.375l1.65625 0l0 1.265625l-1.65625 0l0 5.671875q0 0.6875 0.078125 0.890625q0.09375 0.203125 0.28125 0.328125q0.203125 0.109375 0.578125 0.109375q0.265625 0 0.71875 -0.0625zm8.230179 -1.640625l1.6875 0.203125q-0.40625 1.484375 -1.484375 2.3125q-1.078125 0.8125 -2.765625 0.8125q-2.125 0 -3.375 -1.296875q-1.234375 -1.3125 -1.234375 -3.671875q0 -2.453125 1.25 -3.796875q1.265625 -1.34375 3.265625 -1.34375q1.9375 0 3.15625 1.328125q1.234375 1.3125 1.234375 3.703125q0 0.15625 0 0.4375l-7.21875 0q0.09375 1.59375 0.90625 2.453125q0.8125 0.84375 2.015625 0.84375q0.90625 0 1.546875 -0.46875q0.640625 -0.484375 1.015625 -1.515625zm-5.390625 -2.65625l5.40625 0q-0.109375 -1.21875 -0.625 -1.828125q-0.78125 -0.953125 -2.03125 -0.953125q-1.125 0 -1.90625 0.765625q-0.765625 0.75 -0.84375 2.015625zm9.125717 5.765625l0 -9.671875l1.46875 0l0 1.46875q0.5625 -1.03125 1.03125 -1.359375q0.484375 -0.328125 1.0625 -0.328125q0.828125 0 1.6875 0.53125l-0.5625 1.515625q-0.609375 -0.359375 -1.203125 -0.359375q-0.546875 0 -0.96875 0.328125q-0.421875 0.328125 -0.609375 0.890625q-0.28125 0.875 -0.28125 1.921875l0 5.0625l-1.625 0zm14.683746 0l0 -11.78125l-4.40625 0l0 -1.578125l10.578125 0l0 1.578125l-4.40625 0l0 11.78125l-1.765625 0zm8.537903 0l-2.96875 -9.671875l1.703125 0l1.53125 5.578125l0.578125 2.078125q0.046875 -0.15625 0.5 -2.0l1.546875 -5.65625l1.6875 0l1.4375 5.609375l0.484375 1.84375l0.5625 -1.859375l1.65625 -5.59375l1.59375 0l-3.03125 9.671875l-1.703125 0l-1.53125 -5.796875l-0.375 -1.640625l-1.953125 7.4375l-1.71875 0zm18.316696 -3.109375l1.6875 0.203125q-0.40625 1.484375 -1.484375 2.3125q-1.078125 0.8125 -2.765625 0.8125q-2.125 0 -3.375 -1.296875q-1.234375 -1.3125 -1.234375 -3.671875q0 -2.453125 1.25 -3.796875q1.265625 -1.34375 3.265625 -1.34375q1.9375 0 3.15625 1.328125q1.234375 1.3125 1.234375 3.703125q0 0.15625 0 0.4375l-7.21875 0q0.09375 1.59375 0.90625 2.453125q0.8125 0.84375 2.015625 0.84375q0.90625 0 1.546875 -0.46875q0.640625 -0.484375 1.015625 -1.515625zm-5.390625 -2.65625l5.40625 0q-0.109375 -1.21875 -0.625 -1.828125q-0.78125 -0.953125 -2.03125 -0.953125q-1.125 0 -1.90625 0.765625q-0.765625 0.75 -0.84375 2.015625zm15.766342 2.65625l1.6875 0.203125q-0.40625 1.484375 -1.484375 2.3125q-1.078125 0.8125 -2.765625 0.8125q-2.125 0 -3.375 -1.296875q-1.234375 -1.3125 -1.234375 -3.671875q0 -2.453125 1.25 -3.796875q1.265625 -1.34375 3.265625 -1.34375q1.9375 0 3.15625 1.328125q1.234375 1.3125 1.234375 3.703125q0 0.15625 0 0.4375l-7.21875 0q0.09375 1.59375 0.90625 2.453125q0.8125 0.84375 2.015625 0.84375q0.90625 0 1.546875 -0.46875q0.640625 -0.484375 1.015625 -1.515625zm-5.390625 -2.65625l5.40625 0q-0.109375 -1.21875 -0.625 -1.828125q-0.78125 -0.953125 -2.03125 -0.953125q-1.125 0 -1.90625 0.765625q-0.765625 0.75 -0.84375 2.015625zm12.719467 4.296875l0.234375 1.453125q-0.6875 0.140625 -1.234375 0.140625q-0.890625 0 -1.390625 -0.28125q-0.484375 -0.28125 -0.6875 -0.734375q-0.203125 -0.46875 -0.203125 -1.9375l0 -5.578125l-1.203125 0l0 -1.265625l1.203125 0l0 -2.390625l1.625 -0.984375l0 3.375l1.65625 0l0 1.265625l-1.65625 0l0 5.671875q0 0.6875 0.078125 0.890625q0.09375 0.203125 0.28125 0.328125q0.203125 0.109375 0.578125 0.109375q0.265625 0 0.71875 -0.0625z" fill-rule="nonzero"/><path fill="#fff2cc" d="m506.72177 248.41208l278.11026 0l0 63.516815l-12.703674 12.703644l-265.4066 0z" fill-rule="evenodd"/><path fill="#cbc1a3" d="m772.12836 324.63254l2.5407104 -10.162933l10.162964 -2.5407104z" fill-rule="evenodd"/><path fill="#000000" fill-opacity="0.0" d="m772.12836 324.63254l2.5407104 -10.162933l10.162964 -2.5407104l-12.703674 12.703644l-265.4066 0l0 -76.22046l278.11026 0l0 63.516815" fill-rule="evenodd"/><path stroke="#f1c232" stroke-width="1.0" stroke-linejoin="round" stroke-linecap="butt" d="m772.12836 324.63254l2.5407104 -10.162933l10.162964 -2.5407104l-12.703674 12.703644l-265.4066 0l0 -76.22046l278.11026 0l0 63.516815" fill-rule="evenodd"/><path fill="#000000" d="m518.8609 262.3786q0 -0.234375 0.015625 -0.65625q0.015625 -0.4375 0.046875 -0.9375q0.046875 -0.5 0.15625 -1.03125q0.109375 -0.546875 0.328125 -0.96875q0.21875 -0.421875 0.546875 -0.6875q0.328125 -0.28125 0.796875 -0.28125q0.296875 0 0.453125 0.171875q0.171875 0.15625 0.203125 0.390625q0.03125 0.234375 -0.140625 0.515625q-0.15625 0.265625 -0.515625 0.484375q-0.25 0 -0.359375 0.375q-0.109375 0.359375 -0.171875 0.796875q-0.046875 0.4375 -0.046875 0.859375q0 0.40625 0 0.484375q0 0.703125 0.046875 1.640625q0.0625 0.921875 0.21875 1.921875q0.171875 1.0 0.484375 1.984375q0.3125 0.984375 0.8125 1.796875q0.515625 0.796875 1.21875 1.34375q0.71875 0.546875 1.734375 0.609375q0.765625 0.046875 1.765625 -0.28125q1.015625 -0.328125 1.890625 -0.9375q0.875 -0.609375 1.484375 -1.421875q0.625 -0.8125 0.625 -1.6875l0 -0.109375q-0.1875 -1.140625 -0.390625 -1.90625q-0.203125 -0.765625 -0.359375 -1.390625q-0.15625 -0.640625 -0.25 -1.296875q-0.09375 -0.65625 -0.09375 -1.53125q0.078125 -1.25 0.28125 -1.859375q0.21875 -0.625 0.4375 -0.6875q0.21875 -0.078125 0.453125 0.3125q0.25 0.375 0.4375 1.109375q0.203125 0.71875 0.28125 1.71875q0.078125 1.0 0.046875 2.125q0.03125 0.8125 0.3125 1.796875q0.296875 0.984375 0.640625 1.96875q0.359375 0.984375 0.734375 1.921875q0.375 0.921875 0.5625 1.625q0.1875 0.6875 0.109375 1.140625q-0.078125 0.453125 -0.578125 0.453125q-0.546875 0 -0.828125 -0.328125q-0.265625 -0.328125 -0.453125 -0.71875q-0.1875 -0.40625 -0.40625 -0.734375q-0.21875 -0.328125 -0.546875 -0.328125q-0.28125 0 -0.671875 0.21875q-0.375 0.203125 -0.859375 0.53125q-0.46875 0.328125 -1.03125 0.71875q-0.5625 0.375 -1.171875 0.703125q-0.59375 0.328125 -1.21875 0.546875q-0.625 0.21875 -1.28125 0.21875q-1.1875 0 -2.0625 -0.5625q-0.875 -0.5625 -1.5 -1.46875q-0.625 -0.90625 -1.046875 -2.0625q-0.421875 -1.15625 -0.671875 -2.34375q-0.25 -1.203125 -0.359375 -2.296875q-0.109375 -1.109375 -0.109375 -1.96875zm15.746094 7.09375q0 -1.734375 0.59375 -2.90625q0.609375 -1.171875 1.609375 -1.875q1.0 -0.71875 2.328125 -1.046875q1.328125 -0.328125 2.78125 -0.328125q1.171875 0 2.28125 0.390625q1.109375 0.375 1.984375 1.0625q0.875 0.671875 1.390625 1.65625q0.515625 0.984375 0.515625 2.25q0 1.09375 -0.40625 1.796875q-0.40625 0.6875 -1.125 1.09375q-0.703125 0.390625 -1.578125 0.5625q-0.859375 0.15625 -1.75 0.15625q-0.875 0 -1.796875 -0.078125q-0.921875 -0.09375 -1.6875 -0.390625q-0.765625 -0.296875 -1.265625 -0.890625q-0.484375 -0.609375 -0.484375 -1.703125q0.578125 0 1.109375 0.234375q0.53125 0.234375 1.078125 0.5q0.546875 0.25 1.09375 0.46875q0.53125 0.25 1.125 0.25q0.4375 0 1.15625 -0.078125q0.734375 -0.09375 1.375 -0.328125q0.640625 -0.234375 1.109375 -0.640625q0.46875 -0.40625 0.46875 -1.03125q0 -0.9375 -0.421875 -1.609375q-0.40625 -0.6875 -1.0625 -1.140625q-0.65625 -0.453125 -1.484375 -0.703125q-0.8125 -0.25 -1.625 -0.25q-0.109375 0 -0.546875 0.0625q-0.421875 0.046875 -0.96875 0.171875q-0.546875 0.125 -1.15625 0.3125q-0.59375 0.171875 -1.09375 0.4375q-0.5 0.25 -0.828125 0.578125q-0.328125 0.328125 -0.328125 0.734375l0 0.328125q0.015625 0.3125 0.0625 0.8125q0.046875 0.5 0.0625 1.015625q0.03125 0.5 0.078125 0.890625q0.0625 0.375 0.0625 0.4375q0.0625 0.4375 0.1875 1.359375q0.140625 0.90625 0.296875 2.03125q0.171875 1.140625 0.375 2.390625q0.203125 1.265625 0.390625 2.40625q0.203125 1.140625 0.34375 2.03125q0.15625 0.90625 0.234375 1.3125q0 0.0625 0.015625 0.09375q0.015625 0.046875 0.015625 0.078125q0 0.03125 0 0.03125l-0.03125 0.046875l0 0.0625q-0.046875 0.078125 -0.234375 0.265625q-0.21875 0.171875 -0.28125 0.21875l-0.15625 0q-0.28125 0 -0.578125 -0.515625q-0.296875 -0.5 -0.625 -1.359375q-0.3125 -0.859375 -0.625 -1.984375q-0.3125 -1.109375 -0.609375 -2.3125q-0.296875 -1.203125 -0.546875 -2.390625q-0.25 -1.171875 -0.4375 -2.1875q-0.1875 -1.015625 -0.296875 -1.75q-0.09375 -0.734375 -0.09375 -1.03125zm14.574219 -2.625q0 -1.015625 0.265625 -2.140625q0.265625 -1.125 0.8125 -2.078125q0.5625 -0.953125 1.421875 -1.5625q0.875 -0.625 2.125 -0.625q0.65625 0 1.3125 0.203125q0.65625 0.1875 1.34375 0.546875q0.703125 0.34375 1.453125 0.828125q0.765625 0.46875 1.609375 1.046875q0.109375 -1.09375 -0.09375 -2.25q-0.1875 -1.171875 -0.484375 -2.28125q-0.296875 -1.125 -0.609375 -2.125q-0.3125 -1.0 -0.453125 -1.78125q-0.140625 -0.796875 -0.03125 -1.3125q0.109375 -0.53125 0.65625 -0.671875q0.734375 0.546875 1.265625 1.546875q0.546875 1.0 0.921875 2.3125q0.390625 1.3125 0.625 2.8125q0.25 1.484375 0.40625 3.015625q0.171875 1.53125 0.265625 2.984375q0.09375 1.4375 0.203125 2.65625q0.109375 1.21875 0.203125 2.078125q0.109375 0.859375 0.296875 1.21875q0 0.4375 -0.3125 0.546875q-0.3125 0.109375 -0.640625 0.109375q-0.28125 0 -0.46875 -0.203125q-0.1875 -0.203125 -0.296875 -0.46875q-0.109375 -0.28125 -0.21875 -0.625q-0.09375 -0.34375 -0.203125 -0.625q-0.109375 -0.296875 -0.25 -0.484375q-0.125 -0.1875 -0.34375 -0.1875q-0.0625 0 -0.15625 0.015625q-0.09375 0.015625 -0.09375 0.03125q-0.515625 0.71875 -1.21875 1.390625q-0.6875 0.671875 -1.53125 1.171875q-0.828125 0.5 -1.75 0.8125q-0.90625 0.296875 -1.84375 0.296875q-1.03125 0 -1.8125 -0.6875q-0.78125 -0.6875 -1.3125 -1.640625q-0.53125 -0.953125 -0.796875 -2.015625q-0.265625 -1.078125 -0.265625 -1.859375zm1.703125 0.484375q0.265625 0.984375 0.484375 1.734375q0.21875 0.734375 0.53125 1.203125q0.328125 0.453125 0.765625 0.6875q0.4375 0.234375 1.140625 0.234375q0.875 0 1.859375 -0.5q0.984375 -0.515625 1.828125 -1.296875q0.859375 -0.796875 1.40625 -1.734375q0.546875 -0.953125 0.546875 -1.828125q0 -0.078125 0 -0.328125q0 -0.25 0 -0.328125q-1.453125 -1.421875 -2.671875 -2.03125q-1.21875 -0.625 -2.171875 -0.640625q-0.953125 -0.015625 -1.671875 0.421875q-0.703125 0.4375 -1.171875 1.15625q-0.46875 0.703125 -0.6875 1.578125q-0.21875 0.875 -0.1875 1.671875zm12.980469 1.09375q0.03125 -0.46875 0.28125 -1.0625q0.25 -0.609375 0.765625 -1.171875q0.515625 -0.578125 1.3125 -1.03125q0.796875 -0.453125 1.875 -0.640625q1.078125 -0.1875 2.453125 -0.015625q1.390625 0.15625 3.078125 0.8125q0 -0.03125 0 -0.28125l-0.03125 -0.25q0 -0.703125 -0.40625 -1.4375q-0.40625 -0.75 -1.046875 -1.328125q-0.640625 -0.59375 -1.390625 -0.953125q-0.734375 -0.375 -1.421875 -0.375q-0.265625 0 -0.46875 0.078125q-0.203125 0.078125 -0.40625 0.203125q-0.1875 0.125 -0.375 0.21875q-0.171875 0.09375 -0.40625 0.09375q-0.0625 0 -0.0625 -0.015625q-0.03125 -0.03125 -0.046875 -0.0625q-0.0625 -0.046875 -0.15625 -0.125q-0.09375 -0.09375 -0.09375 -0.125q0 -0.484375 0.171875 -0.84375q0.1875 -0.359375 0.5 -0.578125q0.3125 -0.21875 0.703125 -0.328125q0.40625 -0.125 0.84375 -0.125q1.09375 0.109375 2.078125 0.671875q1.0 0.546875 1.828125 1.40625q0.84375 0.84375 1.46875 1.953125q0.640625 1.109375 1.0625 2.296875q0.421875 1.1875 0.5625 2.390625q0.15625 1.25 0.015625 2.34375q-0.015625 0 -0.15625 0q-0.140625 -0.015625 -0.3125 -0.03125q-0.15625 -0.015625 -0.265625 -0.046875l-0.140625 -0.03125q-0.5625 -1.28125 -1.28125 -2.0625q-0.703125 -0.796875 -1.40625 -1.25q-0.703125 -0.453125 -1.3125 -0.625q-0.59375 -0.1875 -0.96875 -0.265625q-0.40625 0 -0.96875 0.0625q-0.5625 0.046875 -1.171875 0.1875q-0.59375 0.125 -1.21875 0.359375q-0.609375 0.234375 -1.09375 0.5625q-0.46875 0.328125 -0.765625 0.78125q-0.28125 0.453125 -0.28125 1.046875q0 0.65625 0.515625 1.109375q0.53125 0.453125 1.265625 0.75q0.734375 0.28125 1.5 0.390625q0.765625 0.109375 1.234375 0.109375q0.765625 0 1.5 -0.078125q0.734375 -0.09375 1.453125 -0.203125q0.734375 -0.109375 1.4375 -0.1875q0.71875 -0.078125 1.4375 -0.078125q0.046875 0 0.1875 0q0.140625 0 0.28125 0.015625q0.15625 0.015625 0.28125 0.015625q0.125 0 0.171875 0q0.21875 0.078125 0.25 0.25q0.03125 0.15625 0.03125 0.3125q0 0.171875 -0.34375 0.359375q-0.34375 0.1875 -0.890625 0.390625q-0.546875 0.1875 -1.21875 0.390625q-0.671875 0.203125 -1.296875 0.34375q-0.609375 0.140625 -1.140625 0.234375q-0.53125 0.09375 -0.75 0.09375q-1.140625 0 -2.4375 -0.1875q-1.28125 -0.203125 -2.34375 -0.703125q-1.0625 -0.5 -1.765625 -1.40625q-0.703125 -0.90625 -0.703125 -2.328125zm17.367188 -4.78125q-0.21875 0 -0.765625 0q-0.546875 0 -1.140625 -0.09375q-0.578125 -0.09375 -1.0625 -0.3125q-0.46875 -0.21875 -0.46875 -0.640625q0 -0.109375 0.03125 -0.3125q0.046875 -0.203125 0.265625 -0.203125l2.8125 -0.25q0.109375 -1.0 0.15625 -1.640625q0.0625 -0.65625 0.03125 -1.203125q-0.015625 -0.5625 -0.0625 -1.171875q-0.046875 -0.625 -0.0625 -1.609375q0 -0.1875 0.078125 -0.296875q0.078125 -0.109375 0.203125 -0.15625q0.125 -0.0625 0.265625 -0.09375q0.15625 -0.03125 0.234375 -0.03125q0.171875 0 0.34375 0.109375q0.1875 0.109375 0.3125 0.28125q0.140625 0.15625 0.21875 0.34375q0.09375 0.171875 0.09375 0.328125l0.21875 5.125l2.34375 0.109375q0.46875 -0.0625 0.859375 0.171875q0.40625 0.234375 0.421875 0.859375q-0.328125 0.359375 -0.796875 0.4375q-0.453125 0.0625 -0.96875 0.046875q-0.5 -0.015625 -1.0 0q-0.484375 0.015625 -0.859375 0.25q0 0.171875 0.015625 0.90625q0.03125 0.734375 0.0625 1.75q0.03125 1.015625 0.0625 2.171875q0.046875 1.140625 0.0625 2.109375q0.03125 0.96875 0.046875 1.65625q0.015625 0.6875 0.015625 0.765625q-0.625 0.390625 -1.015625 -0.0625q-0.375 -0.453125 -0.609375 -1.34375q-0.234375 -0.890625 -0.328125 -2.078125q-0.09375 -1.1875 -0.109375 -2.34375q-0.015625 -1.171875 0.015625 -2.15625q0.03125 -0.984375 0.078125 -1.421875zm5.984375 2.078125q0 -1.421875 0.421875 -2.71875q0.4375 -1.296875 1.234375 -2.28125q0.8125 -0.984375 1.96875 -1.578125q1.171875 -0.59375 2.703125 -0.59375q0.890625 0.109375 1.5625 0.5q0.671875 0.375 1.09375 0.9375q0.421875 0.5625 0.625 1.296875q0.15625 0.71875 0.15625 1.53125q0 0.984375 -0.578125 1.78125q-0.5625 0.796875 -1.4375 1.328125q-0.875 0.53125 -1.890625 0.828125q-1.015625 0.28125 -1.890625 0.28125q-0.328125 0 -0.671875 0q-0.34375 0 -0.625 -0.109375q-0.265625 -0.109375 -0.4375 -0.328125q-0.15625 -0.21875 -0.15625 -0.65625q0 -0.140625 0.046875 -0.234375q0.046875 -0.09375 0.234375 -0.125q0.1875 -0.046875 0.578125 -0.03125q0.375 0.0625 1.03125 0.171875q0.390625 0 1.109375 -0.25q0.71875 -0.265625 1.46875 -0.671875q0.765625 -0.421875 1.3125 -0.953125q0.546875 -0.53125 0.546875 -1.046875q0 -0.546875 -0.1875 -1.078125q-0.171875 -0.546875 -0.53125 -0.953125q-0.359375 -0.40625 -0.84375 -0.65625q-0.46875 -0.25 -1.0625 -0.1875q-0.96875 0.078125 -1.75 0.515625q-0.765625 0.4375 -1.3125 1.140625q-0.546875 0.6875 -0.859375 1.546875q-0.296875 0.84375 -0.296875 1.765625q0 0.71875 0.03125 1.4375q0.03125 0.703125 0.203125 1.390625q0.171875 0.671875 0.5625 1.3125q0.40625 0.625 1.15625 1.109375q0.75 0.46875 1.890625 0.78125q1.15625 0.3125 2.859375 0.40625l4.890625 -0.328125q-0.4375 0.59375 -1.109375 0.984375q-0.671875 0.375 -1.421875 0.609375q-0.75 0.234375 -1.484375 0.34375q-0.734375 0.109375 -1.390625 0.109375q-1.59375 0 -2.984375 -0.515625q-1.390625 -0.53125 -2.46875 -1.46875q-1.0625 -0.9375 -1.6875 -2.296875q-0.609375 -1.359375 -0.609375 -3.046875zm14.390625 4.015625q0.21875 -0.15625 0.390625 -0.203125q0.1875 -0.046875 0.40625 -0.046875q0.234375 0 0.484375 0.125q0.25 0.125 0.453125 0.3125q0.203125 0.171875 0.421875 0.328125q0.21875 0.171875 0.46875 0.28125q0.703125 0.296875 1.125 0.5q0.4375 0.1875 0.78125 0.296875q0.359375 0.109375 0.828125 0.140625q0.46875 0.015625 1.203125 0.015625q0.578125 0 1.390625 0.015625q0.828125 0.015625 1.5625 -0.125q0.734375 -0.15625 1.25 -0.546875q0.53125 -0.40625 0.53125 -1.234375q0.015625 -0.78125 -0.4375 -1.234375q-0.4375 -0.453125 -1.203125 -0.703125q-0.765625 -0.25 -1.734375 -0.34375q-0.953125 -0.09375 -1.96875 -0.203125q-1.0 -0.109375 -1.984375 -0.3125q-0.96875 -0.203125 -1.734375 -0.640625q-0.765625 -0.4375 -1.21875 -1.203125q-0.46875 -0.765625 -0.5 -1.96875q0.171875 -0.875 0.859375 -1.453125q0.703125 -0.59375 1.671875 -0.90625q0.96875 -0.328125 2.0625 -0.328125q1.09375 -0.015625 2.0 0.265625q0.921875 0.28125 1.53125 0.921875q0.625 0.625 0.65625 1.546875q0.046875 0.546875 -0.09375 0.90625q-0.125 0.359375 -0.359375 0.546875q-0.234375 0.171875 -0.484375 0.15625q-0.234375 -0.015625 -0.375 -0.1875q-0.140625 -0.1875 -0.125 -0.53125q0.015625 -0.34375 0.3125 -0.859375q-0.109375 -0.515625 -0.625 -0.8125q-0.515625 -0.3125 -1.203125 -0.421875q-0.6875 -0.125 -1.46875 -0.0625q-0.78125 0.0625 -1.421875 0.28125q-0.640625 0.21875 -1.046875 0.578125q-0.390625 0.359375 -0.328125 0.828125q0 0.8125 0.46875 1.265625q0.484375 0.453125 1.25 0.703125q0.765625 0.234375 1.765625 0.34375q1.0 0.109375 2.046875 0.21875q1.0625 0.09375 2.046875 0.265625q0.984375 0.171875 1.765625 0.59375q0.796875 0.40625 1.265625 1.109375q0.46875 0.6875 0.46875 1.8125q0 0.84375 -0.4375 1.46875q-0.4375 0.609375 -1.109375 1.015625q-0.671875 0.40625 -1.46875 0.609375q-0.796875 0.1875 -1.515625 0.1875q-0.703125 0 -1.515625 -0.015625q-0.796875 -0.015625 -1.640625 -0.09375q-0.828125 -0.078125 -1.671875 -0.25q-0.84375 -0.1875 -1.578125 -0.546875q-0.71875 -0.375 -1.296875 -0.953125q-0.5625 -0.578125 -0.921875 -1.453125zm24.957031 -1.3125q0.03125 -0.46875 0.28125 -1.0625q0.25 -0.609375 0.765625 -1.171875q0.515625 -0.578125 1.3125 -1.03125q0.796875 -0.453125 1.875 -0.640625q1.078125 -0.1875 2.453125 -0.015625q1.390625 0.15625 3.078125 0.8125q0 -0.03125 0 -0.28125l-0.03125 -0.25q0 -0.703125 -0.40625 -1.4375q-0.40625 -0.75 -1.046875 -1.328125q-0.640625 -0.59375 -1.390625 -0.953125q-0.734375 -0.375 -1.421875 -0.375q-0.265625 0 -0.46875 0.078125q-0.203125 0.078125 -0.40625 0.203125q-0.1875 0.125 -0.375 0.21875q-0.171875 0.09375 -0.40625 0.09375q-0.0625 0 -0.0625 -0.015625q-0.03125 -0.03125 -0.046875 -0.0625q-0.0625 -0.046875 -0.15625 -0.125q-0.09375 -0.09375 -0.09375 -0.125q0 -0.484375 0.171875 -0.84375q0.1875 -0.359375 0.5 -0.578125q0.3125 -0.21875 0.703125 -0.328125q0.40625 -0.125 0.84375 -0.125q1.09375 0.109375 2.078125 0.671875q1.0 0.546875 1.828125 1.40625q0.84375 0.84375 1.46875 1.953125q0.640625 1.109375 1.0625 2.296875q0.421875 1.1875 0.5625 2.390625q0.15625 1.25 0.015625 2.34375q-0.015625 0 -0.15625 0q-0.140625 -0.015625 -0.3125 -0.03125q-0.15625 -0.015625 -0.265625 -0.046875l-0.140625 -0.03125q-0.5625 -1.28125 -1.28125 -2.0625q-0.703125 -0.796875 -1.40625 -1.25q-0.703125 -0.453125 -1.3125 -0.625q-0.59375 -0.1875 -0.96875 -0.265625q-0.40625 0 -0.96875 0.0625q-0.5625 0.046875 -1.171875 0.1875q-0.59375 0.125 -1.21875 0.359375q-0.609375 0.234375 -1.09375 0.5625q-0.46875 0.328125 -0.765625 0.78125q-0.28125 0.453125 -0.28125 1.046875q0 0.65625 0.515625 1.109375q0.53125 0.453125 1.265625 0.75q0.734375 0.28125 1.5 0.390625q0.765625 0.109375 1.234375 0.109375q0.765625 0 1.5 -0.078125q0.734375 -0.09375 1.453125 -0.203125q0.734375 -0.109375 1.4375 -0.1875q0.71875 -0.078125 1.4375 -0.078125q0.046875 0 0.1875 0q0.140625 0 0.28125 0.015625q0.15625 0.015625 0.28125 0.015625q0.125 0 0.171875 0q0.21875 0.078125 0.25 0.25q0.03125 0.15625 0.03125 0.3125q0 0.171875 -0.34375 0.359375q-0.34375 0.1875 -0.890625 0.390625q-0.546875 0.1875 -1.21875 0.390625q-0.671875 0.203125 -1.296875 0.34375q-0.609375 0.140625 -1.140625 0.234375q-0.53125 0.09375 -0.75 0.09375q-1.140625 0 -2.4375 -0.1875q-1.28125 -0.203125 -2.34375 -0.703125q-1.0625 -0.5 -1.765625 -1.40625q-0.703125 -0.90625 -0.703125 -2.328125zm24.148438 0.65625q-0.625 0.359375 -1.078125 0.875q-0.453125 0.5 -0.921875 0.953125q-0.453125 0.4375 -1.015625 0.765625q-0.5625 0.328125 -1.4375 0.328125q-0.984375 0 -1.78125 -0.421875q-0.796875 -0.421875 -1.40625 -1.140625q-0.609375 -0.734375 -1.0625 -1.640625q-0.453125 -0.921875 -0.75 -1.890625q-0.28125 -0.96875 -0.4375 -1.90625q-0.140625 -0.953125 -0.140625 -1.71875q-0.21875 -1.46875 0.078125 -2.296875q0.296875 -0.84375 0.71875 -1.078125q0.4375 -0.234375 0.734375 0.109375q0.296875 0.34375 0.078125 1.1875q-0.046875 0.109375 -0.078125 0.34375q-0.03125 0.234375 -0.0625 0.484375q-0.015625 0.234375 -0.046875 0.453125q-0.03125 0.21875 -0.03125 0.3125q0 0.5625 0.109375 1.34375q0.109375 0.78125 0.34375 1.640625q0.234375 0.84375 0.578125 1.671875q0.359375 0.828125 0.84375 1.484375q0.5 0.65625 1.140625 1.078125q0.65625 0.40625 1.421875 0.40625q0.484375 0 1.109375 -0.46875q0.640625 -0.484375 1.1875 -1.15625q0.5625 -0.671875 0.953125 -1.375q0.40625 -0.71875 0.40625 -1.21875q0 -0.265625 0.015625 -0.890625q0.015625 -0.640625 0.015625 -1.34375q0 -0.71875 -0.015625 -1.34375q-0.015625 -0.625 -0.015625 -0.875q0.171875 -0.265625 0.359375 -0.421875q0.1875 -0.15625 0.46875 -0.15625q0.328125 0 0.546875 0.4375q0.21875 0.4375 0.34375 1.125q0.140625 0.6875 0.1875 1.484375q0.0625 0.78125 0.09375 1.53125q0.03125 0.734375 0.046875 1.296875q0.03125 0.5625 0.09375 0.75q0.125 0.546875 0.390625 1.234375q0.265625 0.671875 0.5 1.328125q0.25 0.640625 0.4375 1.171875q0.203125 0.53125 0.203125 0.796875q0 0.421875 -0.234375 0.5q-0.234375 0.078125 -0.59375 0.078125q-0.4375 0 -0.640625 -0.21875q-0.203125 -0.21875 -0.296875 -0.5625q-0.09375 -0.34375 -0.15625 -0.75q-0.046875 -0.40625 -0.171875 -0.84375q-0.125 -0.4375 -0.359375 -0.8125q-0.234375 -0.390625 -0.671875 -0.640625zm7.2734375 -5.4375q-0.21875 0 -0.765625 0q-0.546875 0 -1.140625 -0.09375q-0.578125 -0.09375 -1.0625 -0.3125q-0.46875 -0.21875 -0.46875 -0.640625q0 -0.109375 0.03125 -0.3125q0.046875 -0.203125 0.265625 -0.203125l2.8125 -0.25q0.109375 -1.0 0.15625 -1.640625q0.0625 -0.65625 0.03125 -1.203125q-0.015625 -0.5625 -0.0625 -1.171875q-0.046875 -0.625 -0.0625 -1.609375q0 -0.1875 0.078125 -0.296875q0.078125 -0.109375 0.203125 -0.15625q0.125 -0.0625 0.265625 -0.09375q0.15625 -0.03125 0.234375 -0.03125q0.171875 0 0.34375 0.109375q0.1875 0.109375 0.3125 0.28125q0.140625 0.15625 0.21875 0.34375q0.09375 0.171875 0.09375 0.328125l0.21875 5.125l2.34375 0.109375q0.46875 -0.0625 0.859375 0.171875q0.40625 0.234375 0.421875 0.859375q-0.328125 0.359375 -0.796875 0.4375q-0.453125 0.0625 -0.96875 0.046875q-0.5 -0.015625 -1.0 0q-0.484375 0.015625 -0.859375 0.25q0 0.171875 0.015625 0.90625q0.03125 0.734375 0.0625 1.75q0.03125 1.015625 0.0625 2.171875q0.046875 1.140625 0.0625 2.109375q0.03125 0.96875 0.046875 1.65625q0.015625 0.6875 0.015625 0.765625q-0.625 0.390625 -1.015625 -0.0625q-0.375 -0.453125 -0.609375 -1.34375q-0.234375 -0.890625 -0.328125 -2.078125q-0.09375 -1.1875 -0.109375 -2.34375q-0.015625 -1.171875 0.015625 -2.15625q0.03125 -0.984375 0.078125 -1.421875zm5.984375 3.828125q0 -1.5 0.65625 -2.625q0.65625 -1.125 1.71875 -1.890625q1.078125 -0.765625 2.40625 -1.125q1.328125 -0.375 2.65625 -0.375q0.71875 0 1.328125 0.265625q0.625 0.25 1.171875 0.703125q0.5625 0.453125 1.0 1.046875q0.4375 0.578125 0.75 1.21875q0.328125 0.625 0.484375 1.265625q0.171875 0.640625 0.171875 1.234375q0 1.40625 -0.546875 2.5q-0.546875 1.09375 -1.484375 1.84375q-0.921875 0.75 -2.109375 1.15625q-1.171875 0.390625 -2.40625 0.390625q-1.25 0 -2.3125 -0.390625q-1.046875 -0.40625 -1.828125 -1.109375q-0.78125 -0.71875 -1.21875 -1.765625q-0.4375 -1.0625 -0.4375 -2.34375zm1.34375 -0.21875q0 0.84375 0.3125 1.625q0.3125 0.78125 0.875 1.359375q0.5625 0.5625 1.328125 0.90625q0.765625 0.34375 1.640625 0.34375q0.46875 0.0625 1.140625 -0.140625q0.671875 -0.21875 1.328125 -0.609375q0.671875 -0.390625 1.28125 -0.953125q0.625 -0.5625 1.03125 -1.234375q0.421875 -0.671875 0.515625 -1.390625q0.09375 -0.734375 -0.25 -1.453125q-0.34375 -0.71875 -1.25 -1.390625q-0.890625 -0.671875 -2.484375 -1.25q-0.90625 0 -1.875 0.265625q-0.96875 0.25 -1.765625 0.78125q-0.78125 0.515625 -1.3125 1.3125q-0.515625 0.78125 -0.515625 1.828125zm30.128906 4.84375q0 -0.09375 0.015625 -0.21875q0.015625 -0.140625 0.015625 -0.28125q0 -0.140625 0 -0.25l0.03125 -0.15625q0 -0.078125 0.03125 -0.453125q0.046875 -0.390625 0.09375 -0.828125q0.0625 -0.4375 0.09375 -0.828125q0.03125 -0.40625 0.03125 -0.515625q-0.0625 -0.578125 -0.25 -1.5q-0.1875 -0.9375 -0.59375 -1.828125q-0.390625 -0.90625 -1.0 -1.5625q-0.59375 -0.65625 -1.421875 -0.65625q-0.734375 0 -1.546875 0.375q-0.796875 0.359375 -1.5 0.953125q-0.6875 0.578125 -1.125 1.34375q-0.46875 0.734375 -0.46875 1.5625q0 0.40625 0.125 0.8125q0.140625 0.390625 0.296875 0.78125q0.15625 0.375 0.28125 0.78125q0.140625 0.40625 0.140625 0.84375q0 0.328125 -0.125 0.65625q-0.125 0.328125 -0.578125 0.328125q-0.5 0 -0.8125 -0.5625q-0.3125 -0.578125 -0.578125 -1.46875q-0.25 -0.890625 -0.546875 -1.890625q-0.28125 -1.015625 -0.703125 -1.90625q-0.421875 -0.890625 -1.046875 -1.46875q-0.609375 -0.578125 -1.5625 -0.578125q-0.75 0 -1.328125 0.328125q-0.5625 0.3125 -0.9375 0.828125q-0.359375 0.515625 -0.578125 1.171875q-0.203125 0.65625 -0.203125 1.34375q0 1.09375 0.15625 2.15625q0.15625 1.046875 0.15625 2.109375q0 0.375 -0.09375 0.703125q-0.078125 0.3125 -0.546875 0.3125q-0.296875 0 -0.5 -0.15625q-0.203125 -0.15625 -0.34375 -0.375q-0.140625 -0.234375 -0.21875 -0.515625q-0.078125 -0.296875 -0.140625 -0.515625q0.0625 -1.125 0.015625 -2.078125q-0.03125 -0.953125 -0.109375 -1.8125q-0.0625 -0.875 -0.140625 -1.75q-0.0625 -0.875 -0.0625 -1.859375q0 -0.046875 0 -0.1875q0 -0.140625 0.015625 -0.28125q0.015625 -0.15625 0.015625 -0.28125q0 -0.125 0 -0.171875q0.03125 -0.0625 0.140625 -0.140625q0.109375 -0.078125 0.125 -0.140625l0.140625 0q0.46875 0 0.6875 0.328125q0.21875 0.28125 0.21875 0.71875q0.4375 -0.46875 0.78125 -0.71875q0.34375 -0.265625 0.65625 -0.40625q0.3125 -0.140625 0.65625 -0.15625q0.34375 -0.03125 0.828125 -0.03125q0.796875 0 1.4375 0.171875q0.640625 0.15625 1.15625 0.46875q0.53125 0.3125 0.96875 0.828125q0.4375 0.5 0.875 1.15625q0.015625 0 0.0625 0.015625q0.046875 0.015625 0.0625 0.015625q0.03125 0 0.28125 -0.265625q0.25 -0.265625 0.65625 -0.625q0.40625 -0.375 0.953125 -0.828125q0.546875 -0.453125 1.140625 -0.828125q0.609375 -0.390625 1.234375 -0.640625q0.640625 -0.265625 1.234375 -0.265625q0.9375 0 1.65625 0.390625q0.71875 0.375 1.296875 1.015625q0.578125 0.640625 0.984375 1.453125q0.40625 0.8125 0.671875 1.671875q0.28125 0.859375 0.40625 1.703125q0.125 0.84375 0.125 1.5625q0 0.265625 -0.015625 0.9375q-0.015625 0.671875 -0.140625 1.375q-0.109375 0.6875 -0.390625 1.234375q-0.265625 0.53125 -0.765625 0.53125q-0.25 0 -0.359375 -0.09375q-0.109375 -0.109375 -0.171875 -0.234375q-0.046875 -0.140625 -0.046875 -0.296875q0 -0.171875 0 -0.359375zm3.171875 -3.671875q0.03125 -0.46875 0.28125 -1.0625q0.25 -0.609375 0.765625 -1.171875q0.515625 -0.578125 1.3125 -1.03125q0.796875 -0.453125 1.875 -0.640625q1.078125 -0.1875 2.453125 -0.015625q1.390625 0.15625 3.078125 0.8125q0 -0.03125 0 -0.28125l-0.03125 -0.25q0 -0.703125 -0.40625 -1.4375q-0.40625 -0.75 -1.046875 -1.328125q-0.640625 -0.59375 -1.390625 -0.953125q-0.734375 -0.375 -1.421875 -0.375q-0.265625 0 -0.46875 0.078125q-0.203125 0.078125 -0.40625 0.203125q-0.1875 0.125 -0.375 0.21875q-0.171875 0.09375 -0.40625 0.09375q-0.0625 0 -0.0625 -0.015625q-0.03125 -0.03125 -0.046875 -0.0625q-0.0625 -0.046875 -0.15625 -0.125q-0.09375 -0.09375 -0.09375 -0.125q0 -0.484375 0.171875 -0.84375q0.1875 -0.359375 0.5 -0.578125q0.3125 -0.21875 0.703125 -0.328125q0.40625 -0.125 0.84375 -0.125q1.09375 0.109375 2.078125 0.671875q1.0 0.546875 1.828125 1.40625q0.84375 0.84375 1.46875 1.953125q0.640625 1.109375 1.0625 2.296875q0.421875 1.1875 0.5625 2.390625q0.15625 1.25 0.015625 2.34375q-0.015625 0 -0.15625 0q-0.140625 -0.015625 -0.3125 -0.03125q-0.15625 -0.015625 -0.265625 -0.046875l-0.140625 -0.03125q-0.5625 -1.28125 -1.28125 -2.0625q-0.703125 -0.796875 -1.40625 -1.25q-0.703125 -0.453125 -1.3125 -0.625q-0.59375 -0.1875 -0.96875 -0.265625q-0.40625 0 -0.96875 0.0625q-0.5625 0.046875 -1.171875 0.1875q-0.59375 0.125 -1.21875 0.359375q-0.609375 0.234375 -1.09375 0.5625q-0.46875 0.328125 -0.765625 0.78125q-0.28125 0.453125 -0.28125 1.046875q0 0.65625 0.515625 1.109375q0.53125 0.453125 1.265625 0.75q0.734375 0.28125 1.5 0.390625q0.765625 0.109375 1.234375 0.109375q0.765625 0 1.5 -0.078125q0.734375 -0.09375 1.453125 -0.203125q0.734375 -0.109375 1.4375 -0.1875q0.71875 -0.078125 1.4375 -0.078125q0.046875 0 0.1875 0q0.140625 0 0.28125 0.015625q0.15625 0.015625 0.28125 0.015625q0.125 0 0.171875 0q0.21875 0.078125 0.25 0.25q0.03125 0.15625 0.03125 0.3125q0 0.171875 -0.34375 0.359375q-0.34375 0.1875 -0.890625 0.390625q-0.546875 0.1875 -1.21875 0.390625q-0.671875 0.203125 -1.296875 0.34375q-0.609375 0.140625 -1.140625 0.234375q-0.53125 0.09375 -0.75 0.09375q-1.140625 0 -2.4375 -0.1875q-1.28125 -0.203125 -2.34375 -0.703125q-1.0625 -0.5 -1.765625 -1.40625q-0.703125 -0.90625 -0.703125 -2.328125zm17.367188 -4.78125q-0.21875 0 -0.765625 0q-0.546875 0 -1.140625 -0.09375q-0.578125 -0.09375 -1.0625 -0.3125q-0.46875 -0.21875 -0.46875 -0.640625q0 -0.109375 0.03125 -0.3125q0.046875 -0.203125 0.265625 -0.203125l2.8125 -0.25q0.109375 -1.0 0.15625 -1.640625q0.0625 -0.65625 0.03125 -1.203125q-0.015625 -0.5625 -0.0625 -1.171875q-0.046875 -0.625 -0.0625 -1.609375q0 -0.1875 0.078125 -0.296875q0.078125 -0.109375 0.203125 -0.15625q0.125 -0.0625 0.265625 -0.09375q0.15625 -0.03125 0.234375 -0.03125q0.171875 0 0.34375 0.109375q0.1875 0.109375 0.3125 0.28125q0.140625 0.15625 0.21875 0.34375q0.09375 0.171875 0.09375 0.328125l0.21875 5.125l2.34375 0.109375q0.46875 -0.0625 0.859375 0.171875q0.40625 0.234375 0.421875 0.859375q-0.328125 0.359375 -0.796875 0.4375q-0.453125 0.0625 -0.96875 0.046875q-0.5 -0.015625 -1.0 0q-0.484375 0.015625 -0.859375 0.25q0 0.171875 0.015625 0.90625q0.03125 0.734375 0.0625 1.75q0.03125 1.015625 0.0625 2.171875q0.046875 1.140625 0.0625 2.109375q0.03125 0.96875 0.046875 1.65625q0.015625 0.6875 0.015625 0.765625q-0.625 0.390625 -1.015625 -0.0625q-0.375 -0.453125 -0.609375 -1.34375q-0.234375 -0.890625 -0.328125 -2.078125q-0.09375 -1.1875 -0.109375 -2.34375q-0.015625 -1.171875 0.015625 -2.15625q0.03125 -0.984375 0.078125 -1.421875zm7.1875 -0.0625q0 -0.109375 0 -0.40625q0 -0.296875 0.015625 -0.625q0.015625 -0.328125 0.015625 -0.625q0 -0.3125 0 -0.421875q-0.109375 -0.84375 0.5 -0.84375q0.265625 0 0.453125 0.140625q0.203125 0.140625 0.359375 0.40625q-0.078125 1.421875 0.125 2.75q0.203125 1.328125 0.453125 2.625q0.265625 1.296875 0.5 2.609375q0.234375 1.3125 0.234375 2.734375q0 0.390625 -0.234375 0.78125q-0.234375 0.375 -0.6875 0.375q-0.359375 0 -0.625 -0.609375q-0.25 -0.625 -0.453125 -1.5625q-0.1875 -0.953125 -0.328125 -2.09375q-0.125 -1.15625 -0.203125 -2.203125q-0.0625 -1.0625 -0.09375 -1.890625q-0.03125 -0.828125 -0.03125 -1.140625zm-1.390625 -6.859375q0 -0.328125 0.1875 -0.421875q0.203125 -0.09375 0.5 -0.09375q0.1875 -0.03125 0.5 0.234375q0.3125 0.25 0.515625 0.578125q0.21875 0.328125 0.234375 0.609375q0.03125 0.328125 -0.40625 0.375l-0.140625 0q-0.40625 0 -0.6875 -0.046875q-0.265625 -0.0625 -0.421875 -0.171875q-0.140625 -0.125 -0.21875 -0.375q-0.0625 -0.25 -0.0625 -0.6875zm5.0820312 10.234375q0 -1.203125 0.46875 -2.34375q0.46875 -1.140625 1.265625 -2.015625q0.8125 -0.875 1.875 -1.390625q1.078125 -0.515625 2.28125 -0.515625q0.546875 0 1.15625 0.125q0.609375 0.125 1.15625 0.40625q0.546875 0.265625 0.90625 0.71875q0.359375 0.4375 0.359375 1.125q0 0.109375 -0.078125 0.4375q-0.0625 0.328125 -0.171875 0.65625q-0.109375 0.328125 -0.265625 0.59375q-0.140625 0.25 -0.25 0.25q0 -1.28125 -0.71875 -2.140625q-0.703125 -0.859375 -2.078125 -0.859375q-1.03125 0 -1.859375 0.4375q-0.8125 0.4375 -1.359375 1.15625q-0.546875 0.703125 -0.84375 1.59375q-0.28125 0.890625 -0.28125 1.8125q0 1.265625 0.40625 2.09375q0.421875 0.8125 1.125 1.3125q0.71875 0.5 1.640625 0.75q0.9375 0.25 1.96875 0.328125q1.046875 0.078125 2.078125 0.0625q1.046875 -0.03125 2.0 -0.09375q0.078125 0 0.265625 0.109375q0.203125 0.109375 0.28125 0.140625l0 0.078125q0 0.0625 0.015625 0.0625q0.015625 0 0.015625 0.03125q0 0.296875 -0.3125 0.515625q-0.296875 0.21875 -0.734375 0.359375q-0.4375 0.125 -0.953125 0.1875q-0.515625 0.046875 -1.03125 0.09375q-0.5 0.046875 -0.890625 0.046875q-0.375 0 -0.546875 0q-1.578125 0 -2.859375 -0.359375q-1.265625 -0.359375 -2.15625 -1.109375q-0.890625 -0.75 -1.390625 -1.90625q-0.484375 -1.171875 -0.484375 -2.75zm12.578125 1.46875q0.03125 -0.46875 0.28125 -1.0625q0.25 -0.609375 0.765625 -1.171875q0.515625 -0.578125 1.3125 -1.03125q0.796875 -0.453125 1.875 -0.640625q1.078125 -0.1875 2.453125 -0.015625q1.390625 0.15625 3.078125 0.8125q0 -0.03125 0 -0.28125l-0.03125 -0.25q0 -0.703125 -0.40625 -1.4375q-0.40625 -0.75 -1.046875 -1.328125q-0.640625 -0.59375 -1.390625 -0.953125q-0.734375 -0.375 -1.421875 -0.375q-0.265625 0 -0.46875 0.078125q-0.203125 0.078125 -0.40625 0.203125q-0.1875 0.125 -0.375 0.21875q-0.171875 0.09375 -0.40625 0.09375q-0.0625 0 -0.0625 -0.015625q-0.03125 -0.03125 -0.046875 -0.0625q-0.0625 -0.046875 -0.15625 -0.125q-0.09375 -0.09375 -0.09375 -0.125q0 -0.484375 0.171875 -0.84375q0.1875 -0.359375 0.5 -0.578125q0.3125 -0.21875 0.703125 -0.328125q0.40625 -0.125 0.84375 -0.125q1.09375 0.109375 2.078125 0.671875q1.0 0.546875 1.828125 1.40625q0.84375 0.84375 1.46875 1.953125q0.640625 1.109375 1.0625 2.296875q0.421875 1.1875 0.5625 2.390625q0.15625 1.25 0.015625 2.34375q-0.015625 0 -0.15625 0q-0.140625 -0.015625 -0.3125 -0.03125q-0.15625 -0.015625 -0.265625 -0.046875l-0.140625 -0.03125q-0.5625 -1.28125 -1.28125 -2.0625q-0.703125 -0.796875 -1.40625 -1.25q-0.703125 -0.453125 -1.3125 -0.625q-0.59375 -0.1875 -0.96875 -0.265625q-0.40625 0 -0.96875 0.0625q-0.5625 0.046875 -1.171875 0.1875q-0.59375 0.125 -1.21875 0.359375q-0.609375 0.234375 -1.09375 0.5625q-0.46875 0.328125 -0.765625 0.78125q-0.28125 0.453125 -0.28125 1.046875q0 0.65625 0.515625 1.109375q0.53125 0.453125 1.265625 0.75q0.734375 0.28125 1.5 0.390625q0.765625 0.109375 1.234375 0.109375q0.765625 0 1.5 -0.078125q0.734375 -0.09375 1.453125 -0.203125q0.734375 -0.109375 1.4375 -0.1875q0.71875 -0.078125 1.4375 -0.078125q0.046875 0 0.1875 0q0.140625 0 0.28125 0.015625q0.15625 0.015625 0.28125 0.015625q0.125 0 0.171875 0q0.21875 0.078125 0.25 0.25q0.03125 0.15625 0.03125 0.3125q0 0.171875 -0.34375 0.359375q-0.34375 0.1875 -0.890625 0.390625q-0.546875 0.1875 -1.21875 0.390625q-0.671875 0.203125 -1.296875 0.34375q-0.609375 0.140625 -1.140625 0.234375q-0.53125 0.09375 -0.75 0.09375q-1.140625 0 -2.4375 -0.1875q-1.28125 -0.203125 -2.34375 -0.703125q-1.0625 -0.5 -1.765625 -1.40625q-0.703125 -0.90625 -0.703125 -2.328125zm14.7734375 4.40625q-0.28125 -1.9375 -0.34375 -3.859375q-0.0625 -1.9375 -0.0625 -3.875q0 -1.953125 0.046875 -3.859375q0.0625 -1.921875 0.03125 -3.828125q0 -0.21875 0.15625 -0.296875q0.171875 -0.09375 0.390625 -0.09375q0.25 0 0.4375 0.1875q0.1875 0.171875 0.328125 0.4375q0.140625 0.25 0.203125 0.515625q0.0625 0.265625 0.0625 0.421875q0.171875 3.90625 0.21875 6.53125q0.0625 2.609375 0 4.203125q-0.046875 1.59375 -0.171875 2.359375q-0.125 0.765625 -0.3125 1.046875q-0.1875 0.265625 -0.453125 0.21875q-0.265625 -0.0625 -0.53125 -0.109375zm3.3632812 0q-0.28125 -1.9375 -0.34375 -3.859375q-0.0625 -1.9375 -0.0625 -3.875q0 -1.953125 0.046875 -3.859375q0.0625 -1.921875 0.03125 -3.828125q0 -0.21875 0.15625 -0.296875q0.171875 -0.09375 0.390625 -0.09375q0.25 0 0.4375 0.1875q0.1875 0.171875 0.328125 0.4375q0.140625 0.25 0.203125 0.515625q0.0625 0.265625 0.0625 0.421875q0.171875 3.90625 0.21875 6.53125q0.0625 2.609375 0 4.203125q-0.046875 1.59375 -0.171875 2.359375q-0.125 0.765625 -0.3125 1.046875q-0.1875 0.265625 -0.453125 0.21875q-0.265625 -0.0625 -0.53125 -0.109375zm3.5039062 8.75q0 -0.1875 0 -0.375q0 -0.171875 0.046875 -0.296875q0.0625 -0.125 0.171875 -0.203125q0.15625 -0.046875 0.375 -0.046875q0.40625 0.453125 1.046875 1.171875q0.65625 0.734375 1.46875 1.421875q0.828125 0.6875 1.71875 1.203125q0.90625 0.515625 1.84375 0.515625q0.765625 -0.03125 1.3125 -0.40625q0.546875 -0.359375 0.921875 -0.96875q0.390625 -0.59375 0.625 -1.359375q0.25 -0.765625 0.390625 -1.5625q0.15625 -0.78125 0.21875 -1.53125q0.078125 -0.734375 0.15625 -1.28125q0.0625 -0.265625 0.125 -0.921875q0.078125 -0.640625 0.140625 -1.421875q0.0625 -0.765625 0.109375 -1.625q0.046875 -0.84375 -0.015625 -1.53125q-0.046875 -0.703125 -0.21875 -1.15625q-0.15625 -0.453125 -0.484375 -0.453125q-0.46875 0 -1.0 0.28125q-0.515625 0.265625 -1.078125 0.609375q-0.546875 0.34375 -1.125 0.625q-0.578125 0.265625 -1.125 0.265625q-1.03125 0 -1.90625 -0.421875q-0.859375 -0.4375 -1.578125 -1.109375q-0.703125 -0.6875 -1.25 -1.59375q-0.546875 -0.921875 -0.921875 -1.90625q-0.359375 -0.984375 -0.546875 -1.96875q-0.171875 -0.984375 -0.171875 -1.859375q0 -0.203125 -0.046875 -0.640625q-0.03125 -0.4375 0.015625 -0.890625q0.0625 -0.46875 0.25 -0.828125q0.203125 -0.359375 0.609375 -0.359375q0.109375 0 0.171875 0.4375q0.078125 0.4375 0.171875 1.140625q0.09375 0.703125 0.234375 1.609375q0.15625 0.890625 0.40625 1.828125q0.25 0.921875 0.59375 1.828125q0.359375 0.90625 0.875 1.609375q0.53125 0.6875 1.25 1.125q0.71875 0.4375 1.65625 0.4375q0.59375 0 1.25 -0.25q0.65625 -0.265625 1.25 -0.671875q0.59375 -0.421875 1.078125 -0.9375q0.5 -0.546875 0.765625 -1.0625q0 -0.109375 -0.03125 -0.515625q-0.015625 -0.421875 -0.046875 -0.953125q-0.03125 -0.53125 -0.0625 -1.15625q-0.015625 -0.640625 -0.046875 -1.1875q-0.03125 -0.5625 -0.046875 -0.96875q-0.015625 -0.421875 -0.015625 -0.53125q0.0625 -1.671875 0.25 -2.03125q0.1875 -0.375 0.453125 0.234375q0.28125 0.59375 0.578125 2.015625q0.3125 1.421875 0.5625 3.328125q0.265625 1.890625 0.40625 4.140625q0.15625 2.234375 0.125 4.484375q-0.015625 2.265625 -0.28125 4.375q-0.25 2.109375 -0.828125 3.734375q-0.578125 1.625 -1.515625 2.640625q-0.921875 1.015625 -2.28125 1.0625q-0.546875 0 -1.3125 -0.203125q-0.75 -0.203125 -1.515625 -0.5625q-0.765625 -0.359375 -1.515625 -0.859375q-0.75 -0.484375 -1.34375 -1.0625q-0.578125 -0.5625 -0.953125 -1.203125q-0.359375 -0.625 -0.359375 -1.25z" fill-rule="nonzero"/><path fill="#000000" d="m567.25543 302.42548q0.03125 -0.46875 0.28125 -1.0625q0.25 -0.609375 0.765625 -1.171875q0.515625 -0.578125 1.3125 -1.03125q0.796875 -0.453125 1.875 -0.640625q1.078125 -0.1875 2.453125 -0.015625q1.390625 0.15625 3.078125 0.8125q0 -0.03125 0 -0.28125l-0.03125 -0.25q0 -0.703125 -0.40625 -1.4375q-0.40625 -0.75 -1.046875 -1.328125q-0.640625 -0.59375 -1.390625 -0.953125q-0.734375 -0.375 -1.421875 -0.375q-0.265625 0 -0.46875 0.078125q-0.203125 0.078125 -0.40625 0.203125q-0.1875 0.125 -0.375 0.21875q-0.171875 0.09375 -0.40625 0.09375q-0.0625 0 -0.0625 -0.015625q-0.03125 -0.03125 -0.046875 -0.0625q-0.0625 -0.046875 -0.15625 -0.125q-0.09375 -0.09375 -0.09375 -0.125q0 -0.484375 0.171875 -0.84375q0.1875 -0.359375 0.5 -0.578125q0.3125 -0.21875 0.703125 -0.328125q0.40625 -0.125 0.84375 -0.125q1.09375 0.109375 2.078125 0.671875q1.0 0.546875 1.828125 1.40625q0.84375 0.84375 1.46875 1.953125q0.640625 1.109375 1.0625 2.296875q0.421875 1.1875 0.5625 2.390625q0.15625 1.25 0.015625 2.34375q-0.015625 0 -0.15625 0q-0.140625 -0.015625 -0.3125 -0.03125q-0.15625 -0.015625 -0.265625 -0.046875l-0.140625 -0.03125q-0.5625 -1.28125 -1.28125 -2.0625q-0.703125 -0.796875 -1.40625 -1.25q-0.703125 -0.453125 -1.3125 -0.625q-0.59375 -0.1875 -0.96875 -0.265625q-0.40625 0 -0.96875 0.0625q-0.5625 0.046875 -1.171875 0.1875q-0.59375 0.125 -1.21875 0.359375q-0.609375 0.234375 -1.09375 0.5625q-0.46875 0.328125 -0.765625 0.78125q-0.28125 0.453125 -0.28125 1.046875q0 0.65625 0.515625 1.109375q0.53125 0.453125 1.265625 0.75q0.734375 0.28125 1.5 0.390625q0.765625 0.109375 1.234375 0.109375q0.765625 0 1.5 -0.078125q0.734375 -0.09375 1.453125 -0.203125q0.734375 -0.109375 1.4375 -0.1875q0.71875 -0.078125 1.4375 -0.078125q0.046875 0 0.1875 0q0.140625 0 0.28125 0.015625q0.15625 0.015625 0.28125 0.015625q0.125 0 0.171875 0q0.21875 0.078125 0.25 0.25q0.03125 0.15625 0.03125 0.3125q0 0.171875 -0.34375 0.359375q-0.34375 0.1875 -0.890625 0.390625q-0.546875 0.1875 -1.21875 0.390625q-0.671875 0.203125 -1.296875 0.34375q-0.609375 0.140625 -1.140625 0.234375q-0.53125 0.09375 -0.75 0.09375q-1.140625 0 -2.4375 -0.1875q-1.28125 -0.203125 -2.34375 -0.703125q-1.0625 -0.5 -1.765625 -1.40625q-0.703125 -0.90625 -0.703125 -2.328125zm14.4453125 -6.046875q0 -0.234375 0.171875 -0.296875q0.1875 -0.078125 0.40625 -0.078125q0.15625 0 0.21875 0.078125q0.078125 0.078125 0.09375 0.1875q0.03125 0.109375 0.078125 0.21875q0.0625 0.09375 0.203125 0.09375q0.390625 0 0.9375 -0.296875q0.546875 -0.3125 1.1875 -0.65625q0.640625 -0.359375 1.359375 -0.65625q0.734375 -0.3125 1.4375 -0.3125q0.9375 0 1.703125 0.484375q0.78125 0.46875 1.390625 1.265625q0.625 0.796875 1.0625 1.78125q0.4375 0.984375 0.734375 2.015625q0.3125 1.015625 0.4375 1.984375q0.140625 0.96875 0.140625 1.6875q0 0.25 -0.046875 0.75q-0.03125 0.484375 -0.125 0.984375q-0.09375 0.484375 -0.3125 0.859375q-0.21875 0.359375 -0.546875 0.359375q-0.0625 0 -0.203125 -0.015625q-0.125 -0.015625 -0.265625 -0.046875q-0.140625 -0.046875 -0.234375 -0.09375q-0.09375 -0.0625 -0.09375 -0.171875q0.25 -2.109375 0 -3.953125q-0.25 -1.84375 -0.796875 -3.234375q-0.546875 -1.40625 -1.34375 -2.21875q-0.78125 -0.828125 -1.6875 -0.828125q-0.84375 0 -1.59375 0.28125q-0.734375 0.265625 -1.28125 0.796875q-0.546875 0.515625 -0.859375 1.25q-0.3125 0.734375 -0.3125 1.609375q0 0.875 0.15625 1.75q0.171875 0.859375 0.375 1.71875q0.203125 0.859375 0.359375 1.734375q0.171875 0.875 0.171875 1.75q-0.765625 0 -1.28125 -0.625q-0.515625 -0.640625 -0.84375 -1.625q-0.3125 -0.984375 -0.484375 -2.203125q-0.171875 -1.234375 -0.25 -2.421875q-0.0625 -1.1875 -0.0625 -2.234375q0 -1.0625 0 -1.671875zm12.597656 4.46875q0 -1.015625 0.265625 -2.140625q0.265625 -1.125 0.8125 -2.078125q0.5625 -0.953125 1.421875 -1.5625q0.875 -0.625 2.125 -0.625q0.65625 0 1.3125 0.203125q0.65625 0.1875 1.34375 0.546875q0.703125 0.34375 1.453125 0.828125q0.765625 0.46875 1.609375 1.046875q0.109375 -1.09375 -0.09375 -2.25q-0.1875 -1.171875 -0.484375 -2.28125q-0.296875 -1.125 -0.609375 -2.125q-0.3125 -1.0 -0.453125 -1.78125q-0.140625 -0.796875 -0.03125 -1.3125q0.109375 -0.53125 0.65625 -0.671875q0.734375 0.546875 1.265625 1.546875q0.546875 1.0 0.921875 2.3125q0.390625 1.3125 0.625 2.8125q0.25 1.484375 0.40625 3.015625q0.171875 1.53125 0.265625 2.984375q0.09375 1.4375 0.203125 2.65625q0.109375 1.21875 0.203125 2.078125q0.109375 0.859375 0.296875 1.21875q0 0.4375 -0.3125 0.546875q-0.3125 0.109375 -0.640625 0.109375q-0.28125 0 -0.46875 -0.203125q-0.1875 -0.203125 -0.296875 -0.46875q-0.109375 -0.28125 -0.21875 -0.625q-0.09375 -0.34375 -0.203125 -0.625q-0.109375 -0.296875 -0.25 -0.484375q-0.125 -0.1875 -0.34375 -0.1875q-0.0625 0 -0.15625 0.015625q-0.09375 0.015625 -0.09375 0.03125q-0.515625 0.71875 -1.21875 1.390625q-0.6875 0.671875 -1.53125 1.171875q-0.828125 0.5 -1.75 0.8125q-0.90625 0.296875 -1.84375 0.296875q-1.03125 0 -1.8125 -0.6875q-0.78125 -0.6875 -1.3125 -1.640625q-0.53125 -0.953125 -0.796875 -2.015625q-0.265625 -1.078125 -0.265625 -1.859375zm1.703125 0.484375q0.265625 0.984375 0.484375 1.734375q0.21875 0.734375 0.53125 1.203125q0.328125 0.453125 0.765625 0.6875q0.4375 0.234375 1.140625 0.234375q0.875 0 1.859375 -0.5q0.984375 -0.515625 1.828125 -1.296875q0.859375 -0.796875 1.40625 -1.734375q0.546875 -0.953125 0.546875 -1.828125q0 -0.078125 0 -0.328125q0 -0.25 0 -0.328125q-1.453125 -1.421875 -2.671875 -2.03125q-1.21875 -0.625 -2.171875 -0.640625q-0.953125 -0.015625 -1.671875 0.421875q-0.703125 0.4375 -1.171875 1.15625q-0.46875 0.703125 -0.6875 1.578125q-0.21875 0.875 -0.1875 1.671875zm23.480469 2.140625q0 -1.734375 0.59375 -2.90625q0.609375 -1.171875 1.609375 -1.875q1.0 -0.71875 2.328125 -1.046875q1.328125 -0.328125 2.78125 -0.328125q1.171875 0 2.28125 0.390625q1.109375 0.375 1.984375 1.0625q0.875 0.671875 1.390625 1.65625q0.515625 0.984375 0.515625 2.25q0 1.09375 -0.40625 1.796875q-0.40625 0.6875 -1.125 1.09375q-0.703125 0.390625 -1.578125 0.5625q-0.859375 0.15625 -1.75 0.15625q-0.875 0 -1.796875 -0.078125q-0.921875 -0.09375 -1.6875 -0.390625q-0.765625 -0.296875 -1.265625 -0.890625q-0.484375 -0.609375 -0.484375 -1.703125q0.578125 0 1.109375 0.234375q0.53125 0.234375 1.078125 0.5q0.546875 0.25 1.09375 0.46875q0.53125 0.25 1.125 0.25q0.4375 0 1.15625 -0.078125q0.734375 -0.09375 1.375 -0.328125q0.640625 -0.234375 1.109375 -0.640625q0.46875 -0.40625 0.46875 -1.03125q0 -0.9375 -0.421875 -1.609375q-0.40625 -0.6875 -1.0625 -1.140625q-0.65625 -0.453125 -1.484375 -0.703125q-0.8125 -0.25 -1.625 -0.25q-0.109375 0 -0.546875 0.0625q-0.421875 0.046875 -0.96875 0.171875q-0.546875 0.125 -1.15625 0.3125q-0.59375 0.171875 -1.09375 0.4375q-0.5 0.25 -0.828125 0.578125q-0.328125 0.328125 -0.328125 0.734375l0 0.328125q0.015625 0.3125 0.0625 0.8125q0.046875 0.5 0.0625 1.015625q0.03125 0.5 0.078125 0.890625q0.0625 0.375 0.0625 0.4375q0.0625 0.4375 0.1875 1.359375q0.140625 0.90625 0.296875 2.03125q0.171875 1.140625 0.375 2.390625q0.203125 1.265625 0.390625 2.40625q0.203125 1.140625 0.34375 2.03125q0.15625 0.90625 0.234375 1.3125q0 0.0625 0.015625 0.09375q0.015625 0.046875 0.015625 0.078125q0 0.03125 0 0.03125l-0.03125 0.046875l0 0.0625q-0.046875 0.078125 -0.234375 0.265625q-0.21875 0.171875 -0.28125 0.21875l-0.15625 0q-0.28125 0 -0.578125 -0.515625q-0.296875 -0.5 -0.625 -1.359375q-0.3125 -0.859375 -0.625 -1.984375q-0.3125 -1.109375 -0.609375 -2.3125q-0.296875 -1.203125 -0.546875 -2.390625q-0.25 -1.171875 -0.4375 -2.1875q-0.1875 -1.015625 -0.296875 -1.75q-0.09375 -0.734375 -0.09375 -1.03125zm15.183594 3.359375q-0.28125 -1.9375 -0.34375 -3.859375q-0.0625 -1.9375 -0.0625 -3.875q0 -1.953125 0.046875 -3.859375q0.0625 -1.921875 0.03125 -3.828125q0 -0.21875 0.15625 -0.296875q0.171875 -0.09375 0.390625 -0.09375q0.25 0 0.4375 0.1875q0.1875 0.171875 0.328125 0.4375q0.140625 0.25 0.203125 0.515625q0.0625 0.265625 0.0625 0.421875q0.171875 3.90625 0.21875 6.53125q0.0625 2.609375 0 4.203125q-0.046875 1.59375 -0.171875 2.359375q-0.125 0.765625 -0.3125 1.046875q-0.1875 0.265625 -0.453125 0.21875q-0.265625 -0.0625 -0.53125 -0.109375zm12.738281 -3.75q-0.625 0.359375 -1.078125 0.875q-0.453125 0.5 -0.921875 0.953125q-0.453125 0.4375 -1.015625 0.765625q-0.5625 0.328125 -1.4375 0.328125q-0.984375 0 -1.78125 -0.421875q-0.796875 -0.421875 -1.40625 -1.140625q-0.609375 -0.734375 -1.0625 -1.640625q-0.453125 -0.921875 -0.75 -1.890625q-0.28125 -0.96875 -0.4375 -1.90625q-0.140625 -0.953125 -0.140625 -1.71875q-0.21875 -1.46875 0.078125 -2.296875q0.296875 -0.84375 0.71875 -1.078125q0.4375 -0.234375 0.734375 0.109375q0.296875 0.34375 0.078125 1.1875q-0.046875 0.109375 -0.078125 0.34375q-0.03125 0.234375 -0.0625 0.484375q-0.015625 0.234375 -0.046875 0.453125q-0.03125 0.21875 -0.03125 0.3125q0 0.5625 0.109375 1.34375q0.109375 0.78125 0.34375 1.640625q0.234375 0.84375 0.578125 1.671875q0.359375 0.828125 0.84375 1.484375q0.5 0.65625 1.140625 1.078125q0.65625 0.40625 1.421875 0.40625q0.484375 0 1.109375 -0.46875q0.640625 -0.484375 1.1875 -1.15625q0.5625 -0.671875 0.953125 -1.375q0.40625 -0.71875 0.40625 -1.21875q0 -0.265625 0.015625 -0.890625q0.015625 -0.640625 0.015625 -1.34375q0 -0.71875 -0.015625 -1.34375q-0.015625 -0.625 -0.015625 -0.875q0.171875 -0.265625 0.359375 -0.421875q0.1875 -0.15625 0.46875 -0.15625q0.328125 0 0.546875 0.4375q0.21875 0.4375 0.34375 1.125q0.140625 0.6875 0.1875 1.484375q0.0625 0.78125 0.09375 1.53125q0.03125 0.734375 0.046875 1.296875q0.03125 0.5625 0.09375 0.75q0.125 0.546875 0.390625 1.234375q0.265625 0.671875 0.5 1.328125q0.25 0.640625 0.4375 1.171875q0.203125 0.53125 0.203125 0.796875q0 0.421875 -0.234375 0.5q-0.234375 0.078125 -0.59375 0.078125q-0.4375 0 -0.640625 -0.21875q-0.203125 -0.21875 -0.296875 -0.5625q-0.09375 -0.34375 -0.15625 -0.75q-0.046875 -0.40625 -0.171875 -0.84375q-0.125 -0.4375 -0.359375 -0.8125q-0.234375 -0.390625 -0.671875 -0.640625zm6.5703125 3.96875q-0.609375 -1.09375 -1.046875 -2.375q-0.4375 -1.296875 -0.734375 -2.609375q-0.296875 -1.3125 -0.484375 -2.546875q-0.171875 -1.25 -0.234375 -2.265625q0 -0.1875 -0.03125 -0.421875q-0.015625 -0.234375 0 -0.46875q0.015625 -0.25 0.078125 -0.46875q0.0625 -0.21875 0.234375 -0.390625l0.046875 0q0.03125 0 0.03125 0q0 -0.015625 0.03125 -0.015625q0.03125 0 0.03125 0.015625q0 0 0.046875 0l0.0625 0q0.046875 0.03125 0.265625 0.125q0.21875 0.078125 0.28125 0.125q0.484375 -0.15625 1.0 -0.390625q0.53125 -0.234375 1.0625 -0.4375q0.53125 -0.203125 1.078125 -0.34375q0.546875 -0.140625 1.0625 -0.140625q0.390625 0 0.671875 0.03125q0.28125 0.03125 0.5625 0.09375q0.296875 0.0625 0.625 0.171875q0.328125 0.09375 0.765625 0.21875q0.21875 0.171875 0.390625 0.328125q0.1875 0.140625 0.328125 0.34375q0.15625 0.1875 0.234375 0.46875q0.09375 0.265625 0.09375 0.703125q-0.4375 0.046875 -1.03125 -0.078125q-0.59375 -0.125 -1.234375 -0.3125q-0.640625 -0.1875 -1.328125 -0.328125q-0.671875 -0.140625 -1.3125 -0.109375q-0.625 0.03125 -1.171875 0.359375q-0.578125 0.265625 -1.015625 0.984375q-0.1875 0.796875 -0.15625 1.5625q0.03125 0.765625 0.1875 1.484375q0.171875 0.71875 0.421875 1.453125q0.265625 0.71875 0.5 1.453125q0.234375 0.71875 0.421875 1.4375q0.1875 0.703125 0.25 1.4375q0 0.28125 -0.3125 0.59375q-0.296875 0.3125 -0.671875 0.3125zm7.2070312 -4.625q0.03125 -0.46875 0.28125 -1.0625q0.25 -0.609375 0.765625 -1.171875q0.515625 -0.578125 1.3125 -1.03125q0.796875 -0.453125 1.875 -0.640625q1.078125 -0.1875 2.453125 -0.015625q1.390625 0.15625 3.078125 0.8125q0 -0.03125 0 -0.28125l-0.03125 -0.25q0 -0.703125 -0.40625 -1.4375q-0.40625 -0.75 -1.046875 -1.328125q-0.640625 -0.59375 -1.390625 -0.953125q-0.734375 -0.375 -1.421875 -0.375q-0.265625 0 -0.46875 0.078125q-0.203125 0.078125 -0.40625 0.203125q-0.1875 0.125 -0.375 0.21875q-0.171875 0.09375 -0.40625 0.09375q-0.0625 0 -0.0625 -0.015625q-0.03125 -0.03125 -0.046875 -0.0625q-0.0625 -0.046875 -0.15625 -0.125q-0.09375 -0.09375 -0.09375 -0.125q0 -0.484375 0.171875 -0.84375q0.1875 -0.359375 0.5 -0.578125q0.3125 -0.21875 0.703125 -0.328125q0.40625 -0.125 0.84375 -0.125q1.09375 0.109375 2.078125 0.671875q1.0 0.546875 1.828125 1.40625q0.84375 0.84375 1.46875 1.953125q0.640625 1.109375 1.0625 2.296875q0.421875 1.1875 0.5625 2.390625q0.15625 1.25 0.015625 2.34375q-0.015625 0 -0.15625 0q-0.140625 -0.015625 -0.3125 -0.03125q-0.15625 -0.015625 -0.265625 -0.046875l-0.140625 -0.03125q-0.5625 -1.28125 -1.28125 -2.0625q-0.703125 -0.796875 -1.40625 -1.25q-0.703125 -0.453125 -1.3125 -0.625q-0.59375 -0.1875 -0.96875 -0.265625q-0.40625 0 -0.96875 0.0625q-0.5625 0.046875 -1.171875 0.1875q-0.59375 0.125 -1.21875 0.359375q-0.609375 0.234375 -1.09375 0.5625q-0.46875 0.328125 -0.765625 0.78125q-0.28125 0.453125 -0.28125 1.046875q0 0.65625 0.515625 1.109375q0.53125 0.453125 1.265625 0.75q0.734375 0.28125 1.5 0.390625q0.765625 0.109375 1.234375 0.109375q0.765625 0 1.5 -0.078125q0.734375 -0.09375 1.453125 -0.203125q0.734375 -0.109375 1.4375 -0.1875q0.71875 -0.078125 1.4375 -0.078125q0.046875 0 0.1875 0q0.140625 0 0.28125 0.015625q0.15625 0.015625 0.28125 0.015625q0.125 0 0.171875 0q0.21875 0.078125 0.25 0.25q0.03125 0.15625 0.03125 0.3125q0 0.171875 -0.34375 0.359375q-0.34375 0.1875 -0.890625 0.390625q-0.546875 0.1875 -1.21875 0.390625q-0.671875 0.203125 -1.296875 0.34375q-0.609375 0.140625 -1.140625 0.234375q-0.53125 0.09375 -0.75 0.09375q-1.140625 0 -2.4375 -0.1875q-1.28125 -0.203125 -2.34375 -0.703125q-1.0625 -0.5 -1.765625 -1.40625q-0.703125 -0.90625 -0.703125 -2.328125zm14.7734375 4.40625q-0.28125 -1.9375 -0.34375 -3.859375q-0.0625 -1.9375 -0.0625 -3.875q0 -1.953125 0.046875 -3.859375q0.0625 -1.921875 0.03125 -3.828125q0 -0.21875 0.15625 -0.296875q0.171875 -0.09375 0.390625 -0.09375q0.25 0 0.4375 0.1875q0.1875 0.171875 0.328125 0.4375q0.140625 0.25 0.203125 0.515625q0.0625 0.265625 0.0625 0.421875q0.171875 3.90625 0.21875 6.53125q0.0625 2.609375 0 4.203125q-0.046875 1.59375 -0.171875 2.359375q-0.125 0.765625 -0.3125 1.046875q-0.1875 0.265625 -0.453125 0.21875q-0.265625 -0.0625 -0.53125 -0.109375zm3.9570312 -9.25q0 -0.109375 0 -0.40625q0 -0.296875 0.015625 -0.625q0.015625 -0.328125 0.015625 -0.625q0 -0.3125 0 -0.421875q-0.109375 -0.84375 0.5 -0.84375q0.265625 0 0.453125 0.140625q0.203125 0.140625 0.359375 0.40625q-0.078125 1.421875 0.125 2.75q0.203125 1.328125 0.453125 2.625q0.265625 1.296875 0.5 2.609375q0.234375 1.3125 0.234375 2.734375q0 0.390625 -0.234375 0.78125q-0.234375 0.375 -0.6875 0.375q-0.359375 0 -0.625 -0.609375q-0.25 -0.625 -0.453125 -1.5625q-0.1875 -0.953125 -0.328125 -2.09375q-0.125 -1.15625 -0.203125 -2.203125q-0.0625 -1.0625 -0.09375 -1.890625q-0.03125 -0.828125 -0.03125 -1.140625zm-1.390625 -6.859375q0 -0.328125 0.1875 -0.421875q0.203125 -0.09375 0.5 -0.09375q0.1875 -0.03125 0.5 0.234375q0.3125 0.25 0.515625 0.578125q0.21875 0.328125 0.234375 0.609375q0.03125 0.328125 -0.40625 0.375l-0.140625 0q-0.40625 0 -0.6875 -0.046875q-0.265625 -0.0625 -0.421875 -0.171875q-0.140625 -0.125 -0.21875 -0.375q-0.0625 -0.25 -0.0625 -0.6875zm6.9257812 14.46875q0 -0.46875 0.28125 -1.03125q0.28125 -0.578125 0.703125 -1.140625q0.4375 -0.5625 0.875 -1.0625q0.4375 -0.515625 0.734375 -0.84375l-3.609375 -0.109375q-0.109375 0 -0.1875 -0.078125q-0.0625 -0.078125 -0.09375 -0.203125q-0.015625 -0.125 -0.015625 -0.234375q0 -0.109375 0 -0.140625q0 -0.25 0.015625 -0.359375q0.03125 -0.125 0.140625 -0.171875q0.109375 -0.0625 0.28125 -0.09375q0.15625 0 0.375 0q0.28125 -0.03125 0.9375 -0.109375q0.65625 -0.078125 1.421875 -0.15625q0.765625 -0.09375 1.421875 -0.15625q0.671875 -0.078125 0.953125 -0.125q0.375 -0.546875 0.625 -0.9375q0.25 -0.40625 0.390625 -0.75q0.15625 -0.34375 0.21875 -0.6875q0.078125 -0.359375 0.078125 -0.859375q0 -0.21875 -0.046875 -0.515625q-0.03125 -0.296875 -0.15625 -0.578125q-0.125 -0.296875 -0.328125 -0.484375q-0.203125 -0.1875 -0.53125 -0.1875l-3.421875 0q-0.296875 0 -0.5625 0.21875q-0.265625 0.21875 -0.46875 0.46875q-0.203125 0.234375 -0.421875 0.421875q-0.21875 0.21875 -0.375 0.21875q-0.46875 0 -0.78125 -0.234375q-0.296875 -0.25 -0.296875 -0.71875q0 -0.4375 0.3125 -0.734375q0.328125 -0.296875 0.84375 -0.53125q0.515625 -0.234375 1.109375 -0.359375q0.609375 -0.125 1.203125 -0.203125q0.609375 -0.078125 1.109375 -0.125q0.515625 -0.046875 0.78125 -0.046875q0.765625 0 1.4375 0.21875q0.671875 0.21875 1.140625 0.65625q0.46875 0.421875 0.734375 1.03125q0.28125 0.59375 0.28125 1.375q0 0.5 -0.109375 0.90625q-0.109375 0.40625 -0.25 0.828125q-0.140625 0.40625 -0.25 0.8125q-0.109375 0.40625 -0.109375 0.875q0.03125 0 0.34375 -0.03125q0.3125 -0.046875 0.6875 -0.0625q0.390625 -0.015625 0.6875 0.0625q0.3125 0.0625 0.3125 0.3125q0 0.046875 0 0.0625q0 0.015625 0 0.046875l0 0.078125q-0.09375 0.140625 -0.296875 0.390625q-0.203125 0.234375 -0.234375 0.234375l-2.921875 0.28125q-0.21875 0.375 -0.625 0.828125q-0.40625 0.453125 -0.828125 0.9375q-0.40625 0.46875 -0.734375 0.9375q-0.328125 0.46875 -0.390625 0.859375q-0.046875 0.375 0.28125 0.65625q0.328125 0.28125 1.265625 0.390625q0.59375 0 1.28125 -0.109375q0.703125 -0.109375 1.40625 -0.296875q0.71875 -0.1875 1.375 -0.4375q0.65625 -0.25 1.1875 -0.515625q0.21875 0.15625 0.375 0.40625q0.171875 0.25 0.171875 0.515625q0 0.421875 -0.390625 0.734375q-0.375 0.3125 -0.984375 0.5625q-0.59375 0.234375 -1.34375 0.4375q-0.734375 0.1875 -1.46875 0.296875q-0.71875 0.109375 -1.328125 0.171875q-0.609375 0.046875 -0.9375 0.046875q-0.390625 0 -0.953125 -0.109375q-0.5625 -0.109375 -1.09375 -0.3125q-0.53125 -0.203125 -0.890625 -0.5625q-0.34375 -0.359375 -0.34375 -0.875zm11.035156 -5.46875q0 -1.421875 0.421875 -2.71875q0.4375 -1.296875 1.234375 -2.28125q0.8125 -0.984375 1.96875 -1.578125q1.171875 -0.59375 2.703125 -0.59375q0.890625 0.109375 1.5625 0.5q0.671875 0.375 1.09375 0.9375q0.421875 0.5625 0.625 1.296875q0.15625 0.71875 0.15625 1.53125q0 0.984375 -0.578125 1.78125q-0.5625 0.796875 -1.4375 1.328125q-0.875 0.53125 -1.890625 0.828125q-1.015625 0.28125 -1.890625 0.28125q-0.328125 0 -0.671875 0q-0.34375 0 -0.625 -0.109375q-0.265625 -0.109375 -0.4375 -0.328125q-0.15625 -0.21875 -0.15625 -0.65625q0 -0.140625 0.046875 -0.234375q0.046875 -0.09375 0.234375 -0.125q0.1875 -0.046875 0.578125 -0.03125q0.375 0.0625 1.03125 0.171875q0.390625 0 1.109375 -0.25q0.71875 -0.265625 1.46875 -0.671875q0.765625 -0.421875 1.3125 -0.953125q0.546875 -0.53125 0.546875 -1.046875q0 -0.546875 -0.1875 -1.078125q-0.171875 -0.546875 -0.53125 -0.953125q-0.359375 -0.40625 -0.84375 -0.65625q-0.46875 -0.25 -1.0625 -0.1875q-0.96875 0.078125 -1.75 0.515625q-0.765625 0.4375 -1.3125 1.140625q-0.546875 0.6875 -0.859375 1.546875q-0.296875 0.84375 -0.296875 1.765625q0 0.71875 0.03125 1.4375q0.03125 0.703125 0.203125 1.390625q0.171875 0.671875 0.5625 1.3125q0.40625 0.625 1.15625 1.109375q0.75 0.46875 1.890625 0.78125q1.15625 0.3125 2.859375 0.40625l4.890625 -0.328125q-0.4375 0.59375 -1.109375 0.984375q-0.671875 0.375 -1.421875 0.609375q-0.75 0.234375 -1.484375 0.34375q-0.734375 0.109375 -1.390625 0.109375q-1.59375 0 -2.984375 -0.515625q-1.390625 -0.53125 -2.46875 -1.46875q-1.0625 -0.9375 -1.6875 -2.296875q-0.609375 -1.359375 -0.609375 -3.046875zm14.390625 4.015625q0.21875 -0.15625 0.390625 -0.203125q0.1875 -0.046875 0.40625 -0.046875q0.234375 0 0.484375 0.125q0.25 0.125 0.453125 0.3125q0.203125 0.171875 0.421875 0.328125q0.21875 0.171875 0.46875 0.28125q0.703125 0.296875 1.125 0.5q0.4375 0.1875 0.78125 0.296875q0.359375 0.109375 0.828125 0.140625q0.46875 0.015625 1.203125 0.015625q0.578125 0 1.390625 0.015625q0.828125 0.015625 1.5625 -0.125q0.734375 -0.15625 1.25 -0.546875q0.53125 -0.40625 0.53125 -1.234375q0.015625 -0.78125 -0.4375 -1.234375q-0.4375 -0.453125 -1.203125 -0.703125q-0.765625 -0.25 -1.734375 -0.34375q-0.953125 -0.09375 -1.96875 -0.203125q-1.0 -0.109375 -1.984375 -0.3125q-0.96875 -0.203125 -1.734375 -0.640625q-0.765625 -0.4375 -1.21875 -1.203125q-0.46875 -0.765625 -0.5 -1.96875q0.171875 -0.875 0.859375 -1.453125q0.703125 -0.59375 1.671875 -0.90625q0.96875 -0.328125 2.0625 -0.328125q1.09375 -0.015625 2.0 0.265625q0.921875 0.28125 1.53125 0.921875q0.625 0.625 0.65625 1.546875q0.046875 0.546875 -0.09375 0.90625q-0.125 0.359375 -0.359375 0.546875q-0.234375 0.171875 -0.484375 0.15625q-0.234375 -0.015625 -0.375 -0.1875q-0.140625 -0.1875 -0.125 -0.53125q0.015625 -0.34375 0.3125 -0.859375q-0.109375 -0.515625 -0.625 -0.8125q-0.515625 -0.3125 -1.203125 -0.421875q-0.6875 -0.125 -1.46875 -0.0625q-0.78125 0.0625 -1.421875 0.28125q-0.640625 0.21875 -1.046875 0.578125q-0.390625 0.359375 -0.328125 0.828125q0 0.8125 0.46875 1.265625q0.484375 0.453125 1.25 0.703125q0.765625 0.234375 1.765625 0.34375q1.0 0.109375 2.046875 0.21875q1.0625 0.09375 2.046875 0.265625q0.984375 0.171875 1.765625 0.59375q0.796875 0.40625 1.265625 1.109375q0.46875 0.6875 0.46875 1.8125q0 0.84375 -0.4375 1.46875q-0.4375 0.609375 -1.109375 1.015625q-0.671875 0.40625 -1.46875 0.609375q-0.796875 0.1875 -1.515625 0.1875q-0.703125 0 -1.515625 -0.015625q-0.796875 -0.015625 -1.640625 -0.09375q-0.828125 -0.078125 -1.671875 -0.25q-0.84375 -0.1875 -1.578125 -0.546875q-0.71875 -0.375 -1.296875 -0.953125q-0.5625 -0.578125 -0.921875 -1.453125z" fill-rule="nonzero"/><path fill="#000000" fill-opacity="0.0" d="m506.72177 286.5223c-49.40155 0 -74.102356 -13.771637 -98.80313 -27.543304c-24.700806 -13.771652 -49.40158 -27.543304 -98.80316 -27.543304" fill-rule="evenodd"/><path stroke="#f1c232" stroke-width="1.0" stroke-linejoin="round" stroke-linecap="butt" d="m506.72177 286.5223c-49.40155 0 -74.102356 -13.771637 -98.80313 -27.543304c-12.350403 -6.8858337 -24.700806 -13.771652 -40.138794 -18.93602c-7.718994 -2.5821838 -16.20987 -4.734009 -25.858643 -6.24028c-4.8243713 -0.7531433 -9.938171 -1.3449097 -15.38974 -1.7483673c-2.725769 -0.20172119 -5.5359497 -0.35638428 -8.436615 -0.4606018c-0.7251587 -0.026062012 -1.4559937 -0.048965454 -2.1925354 -0.06867981l-0.78723145 -0.019256592" fill-rule="evenodd"/><path fill="#f1c232" stroke="#f1c232" stroke-width="1.0" stroke-linecap="butt" d="m315.13437 229.85417l-4.557068 1.5986023l4.518463 1.7046356z" fill-rule="evenodd"/><path fill="#ffffff" d="m39.0 117.5538l261.29135 0l0 96.44095l-261.29135 0z" fill-rule="evenodd"/><path stroke="#595959" stroke-width="1.0" stroke-linejoin="round" stroke-linecap="butt" d="m39.0 117.5538l261.29135 0l0 96.44095l-261.29135 0z" fill-rule="evenodd"/><path fill="#000000" d="m53.390625 138.49443q-0.65625 0.5625 -1.265625 0.796875q-0.59375 0.21875 -1.28125 0.21875q-1.140625 0 -1.75 -0.546875q-0.609375 -0.5625 -0.609375 -1.4375q0 -0.5 0.21875 -0.921875q0.234375 -0.421875 0.609375 -0.671875q0.375 -0.25 0.84375 -0.390625q0.34375 -0.078125 1.046875 -0.171875q1.421875 -0.171875 2.09375 -0.40625q0 -0.234375 0 -0.296875q0 -0.71875 -0.328125 -1.015625q-0.453125 -0.390625 -1.34375 -0.390625q-0.8125 0 -1.21875 0.296875q-0.390625 0.28125 -0.578125 1.015625l-1.140625 -0.15625q0.15625 -0.734375 0.515625 -1.1875q0.359375 -0.453125 1.03125 -0.6875q0.671875 -0.25 1.5625 -0.25q0.890625 0 1.4375 0.203125q0.5625 0.203125 0.8125 0.53125q0.265625 0.3125 0.375 0.796875q0.046875 0.296875 0.046875 1.078125l0 1.5625q0 1.625 0.078125 2.0625q0.078125 0.4375 0.296875 0.828125l-1.21875 0q-0.1875 -0.359375 -0.234375 -0.859375zm-0.09375 -2.609375q-0.640625 0.265625 -1.921875 0.4375q-0.71875 0.109375 -1.015625 0.25q-0.296875 0.125 -0.46875 0.375q-0.15625 0.25 -0.15625 0.546875q0 0.46875 0.34375 0.78125q0.359375 0.3125 1.046875 0.3125q0.671875 0 1.203125 -0.296875q0.53125 -0.296875 0.78125 -0.8125q0.1875 -0.390625 0.1875 -1.171875l0 -0.421875zm7.9748383 3.46875l-2.125 -6.90625l1.21875 0l1.09375 3.984375l0.421875 1.484375q0.015625 -0.109375 0.359375 -1.421875l1.09375 -4.046875l1.203125 0l1.03125 4.0l0.34375 1.328125l0.40625 -1.34375l1.171875 -3.984375l1.140625 0l-2.15625 6.90625l-1.21875 0l-1.09375 -4.140625l-0.265625 -1.171875l-1.40625 5.3125l-1.21875 0zm7.9064026 -3.453125q0 -1.921875 1.078125 -2.84375q0.890625 -0.765625 2.171875 -0.765625q1.421875 0 2.328125 0.9375q0.90625 0.921875 0.90625 2.578125q0 1.328125 -0.40625 2.09375q-0.390625 0.765625 -1.15625 1.1875q-0.765625 0.421875 -1.671875 0.421875q-1.453125 0 -2.359375 -0.921875q-0.890625 -0.9375 -0.890625 -2.6875zm1.203125 0q0 1.328125 0.578125 1.984375q0.59375 0.65625 1.46875 0.65625q0.875 0 1.453125 -0.65625q0.578125 -0.671875 0.578125 -2.03125q0 -1.28125 -0.59375 -1.9375q-0.578125 -0.65625 -1.4375 -0.65625q-0.875 0 -1.46875 0.65625q-0.578125 0.65625 -0.578125 1.984375zm6.6312256 3.453125l0 -6.90625l1.0625 0l0 1.046875q0.40625 -0.734375 0.734375 -0.96875q0.34375 -0.234375 0.765625 -0.234375q0.59375 0 1.203125 0.375l-0.40625 1.078125q-0.4375 -0.25 -0.859375 -0.25q-0.390625 0 -0.703125 0.234375q-0.296875 0.234375 -0.421875 0.640625q-0.203125 0.625 -0.203125 1.359375l0 3.625l-1.171875 0zm8.93837 0l0 -0.875q-0.65625 1.03125 -1.9375 1.03125q-0.8125 0 -1.515625 -0.453125q-0.6875 -0.453125 -1.078125 -1.265625q-0.375 -0.828125 -0.375 -1.890625q0 -1.03125 0.34375 -1.875q0.34375 -0.84375 1.03125 -1.28125q0.703125 -0.453125 1.546875 -0.453125q0.625 0 1.109375 0.265625q0.5 0.25 0.796875 0.671875l0 -3.421875l1.171875 0l0 9.546875l-1.09375 0zm-3.703125 -3.453125q0 1.328125 0.5625 1.984375q0.5625 0.65625 1.328125 0.65625q0.765625 0 1.296875 -0.625q0.53125 -0.625 0.53125 -1.90625q0 -1.421875 -0.546875 -2.078125q-0.546875 -0.671875 -1.34375 -0.671875q-0.78125 0 -1.3125 0.640625q-0.515625 0.625 -0.515625 2.0z" fill-rule="nonzero"/><path fill="#000000" fill-opacity="0.0" d="m39.0 213.99475l261.29135 0l0 37.5748l-261.29135 0z" fill-rule="evenodd"/><path fill="#000000" d="m200.78403 235.79475l0 -2.28125l-4.140625 0l0 -1.078125l4.34375 -6.1875l0.96875 0l0 6.1875l1.28125 0l0 1.078125l-1.28125 0l0 2.28125l-1.171875 0zm0 -3.359375l0 -4.296875l-2.984375 4.296875l2.984375 0zm12.193588 0.828125l1.15625 0.15625q-0.1875 1.1875 -0.96875 1.859375q-0.78125 0.671875 -1.921875 0.671875q-1.40625 0 -2.28125 -0.921875q-0.859375 -0.9375 -0.859375 -2.65625q0 -1.125 0.375 -1.96875q0.375 -0.84375 1.125 -1.25q0.765625 -0.421875 1.65625 -0.421875q1.125 0 1.84375 0.578125q0.71875 0.5625 0.921875 1.609375l-1.140625 0.171875q-0.171875 -0.703125 -0.59375 -1.046875q-0.40625 -0.359375 -0.984375 -0.359375q-0.890625 0 -1.453125 0.640625q-0.546875 0.640625 -0.546875 2.0q0 1.40625 0.53125 2.03125q0.546875 0.625 1.40625 0.625q0.6875 0 1.140625 -0.421875q0.46875 -0.421875 0.59375 -1.296875zm2.1484375 2.53125l0 -9.546875l1.171875 0l0 3.421875q0.828125 -0.9375 2.078125 -0.9375q0.765625 0 1.328125 0.296875q0.5625 0.296875 0.8125 0.84375q0.25 0.53125 0.25 1.546875l0 4.375l-1.171875 0l0 -4.375q0 -0.890625 -0.390625 -1.28125q-0.375 -0.40625 -1.078125 -0.40625q-0.515625 0 -0.984375 0.28125q-0.453125 0.265625 -0.65625 0.734375q-0.1875 0.453125 -0.1875 1.265625l0 3.78125l-1.171875 0zm11.928101 -0.859375q-0.65625 0.5625 -1.265625 0.796875q-0.59375 0.21875 -1.28125 0.21875q-1.140625 0 -1.75 -0.546875q-0.609375 -0.5625 -0.609375 -1.4375q0 -0.5 0.21875 -0.921875q0.234375 -0.421875 0.609375 -0.671875q0.375 -0.25 0.84375 -0.390625q0.34375 -0.078125 1.046875 -0.171875q1.421875 -0.171875 2.09375 -0.40625q0 -0.234375 0 -0.296875q0 -0.71875 -0.328125 -1.015625q-0.453125 -0.390625 -1.34375 -0.390625q-0.8125 0 -1.21875 0.296875q-0.390625 0.28125 -0.578125 1.015625l-1.140625 -0.15625q0.15625 -0.734375 0.515625 -1.1875q0.359375 -0.453125 1.03125 -0.6875q0.671875 -0.25 1.5625 -0.25q0.890625 0 1.4375 0.203125q0.5625 0.203125 0.8125 0.53125q0.265625 0.3125 0.375 0.796875q0.046875 0.296875 0.046875 1.078125l0 1.5625q0 1.625 0.078125 2.0625q0.078125 0.4375 0.296875 0.828125l-1.21875 0q-0.1875 -0.359375 -0.234375 -0.859375zm-0.09375 -2.609375q-0.640625 0.265625 -1.921875 0.4375q-0.71875 0.109375 -1.015625 0.25q-0.296875 0.125 -0.46875 0.375q-0.15625 0.25 -0.15625 0.546875q0 0.46875 0.34375 0.78125q0.359375 0.3125 1.046875 0.3125q0.671875 0 1.203125 -0.296875q0.53125 -0.296875 0.78125 -0.8125q0.1875 -0.390625 0.1875 -1.171875l0 -0.421875zm2.9749756 3.46875l0 -6.90625l1.0625 0l0 1.046875q0.40625 -0.734375 0.734375 -0.96875q0.34375 -0.234375 0.765625 -0.234375q0.59375 0 1.203125 0.375l-0.40625 1.078125q-0.4375 -0.25 -0.859375 -0.25q-0.390625 0 -0.703125 0.234375q-0.296875 0.234375 -0.421875 0.640625q-0.203125 0.625 -0.203125 1.359375l0 3.625l-1.171875 0zm8.96962 -0.859375q-0.65625 0.5625 -1.265625 0.796875q-0.59375 0.21875 -1.28125 0.21875q-1.140625 0 -1.75 -0.546875q-0.609375 -0.5625 -0.609375 -1.4375q0 -0.5 0.21875 -0.921875q0.234375 -0.421875 0.609375 -0.671875q0.375 -0.25 0.84375 -0.390625q0.34375 -0.078125 1.046875 -0.171875q1.421875 -0.171875 2.09375 -0.40625q0 -0.234375 0 -0.296875q0 -0.71875 -0.328125 -1.015625q-0.453125 -0.390625 -1.34375 -0.390625q-0.8125 0 -1.21875 0.296875q-0.390625 0.28125 -0.578125 1.015625l-1.140625 -0.15625q0.15625 -0.734375 0.515625 -1.1875q0.359375 -0.453125 1.03125 -0.6875q0.671875 -0.25 1.5625 -0.25q0.890625 0 1.4375 0.203125q0.5625 0.203125 0.8125 0.53125q0.265625 0.3125 0.375 0.796875q0.046875 0.296875 0.046875 1.078125l0 1.5625q0 1.625 0.078125 2.0625q0.078125 0.4375 0.296875 0.828125l-1.21875 0q-0.1875 -0.359375 -0.234375 -0.859375zm-0.09375 -2.609375q-0.640625 0.265625 -1.921875 0.4375q-0.71875 0.109375 -1.015625 0.25q-0.296875 0.125 -0.46875 0.375q-0.15625 0.25 -0.15625 0.546875q0 0.46875 0.34375 0.78125q0.359375 0.3125 1.046875 0.3125q0.671875 0 1.203125 -0.296875q0.53125 -0.296875 0.78125 -0.8125q0.1875 -0.390625 0.1875 -1.171875l0 -0.421875zm7.5062256 0.9375l1.15625 0.15625q-0.1875 1.1875 -0.96875 1.859375q-0.78125 0.671875 -1.921875 0.671875q-1.40625 0 -2.28125 -0.921875q-0.859375 -0.9375 -0.859375 -2.65625q0 -1.125 0.375 -1.96875q0.375 -0.84375 1.125 -1.25q0.765625 -0.421875 1.65625 -0.421875q1.125 0 1.84375 0.578125q0.71875 0.5625 0.921875 1.609375l-1.140625 0.171875q-0.171875 -0.703125 -0.59375 -1.046875q-0.40625 -0.359375 -0.984375 -0.359375q-0.890625 0 -1.453125 0.640625q-0.546875 0.640625 -0.546875 2.0q0 1.40625 0.53125 2.03125q0.546875 0.625 1.40625 0.625q0.6875 0 1.140625 -0.421875q0.46875 -0.421875 0.59375 -1.296875zm4.7109375 1.484375l0.171875 1.03125q-0.5 0.109375 -0.890625 0.109375q-0.640625 0 -1.0 -0.203125q-0.34375 -0.203125 -0.484375 -0.53125q-0.140625 -0.328125 -0.140625 -1.390625l0 -3.96875l-0.859375 0l0 -0.90625l0.859375 0l0 -1.71875l1.171875 -0.703125l0 2.421875l1.171875 0l0 0.90625l-1.171875 0l0 4.046875q0 0.5 0.046875 0.640625q0.0625 0.140625 0.203125 0.234375q0.140625 0.078125 0.40625 0.078125q0.203125 0 0.515625 -0.046875zm5.8748474 -1.171875l1.203125 0.140625q-0.28125 1.0625 -1.0625 1.65625q-0.765625 0.578125 -1.9687347 0.578125q-1.515625 0 -2.40625 -0.9375q-0.890625 -0.9375 -0.890625 -2.609375q0 -1.75 0.890625 -2.703125q0.90625 -0.96875 2.34375 -0.96875q1.3906097 0 2.2656097 0.9375q0.875 0.9375 0.875 2.65625q0 0.109375 0 0.3125l-5.1562347 0q0.0625 1.140625 0.640625 1.75q0.578125 0.59375 1.4375 0.59375q0.65625 0 1.1093597 -0.328125q0.453125 -0.34375 0.71875 -1.078125zm-3.8437347 -1.90625l3.8593597 0q-0.078125 -0.859375 -0.4375 -1.296875q-0.56248474 -0.6875 -1.4531097 -0.6875q-0.8125 0 -1.359375 0.546875q-0.546875 0.53125 -0.609375 1.4375zm6.5062103 4.125l0 -6.90625l1.0625 0l0 1.046875q0.40625 -0.734375 0.734375 -0.96875q0.34375 -0.234375 0.765625 -0.234375q0.59375 0 1.203125 0.375l-0.40625 1.078125q-0.4375 -0.25 -0.859375 -0.25q-0.390625 0 -0.703125 0.234375q-0.296875 0.234375 -0.421875 0.640625q-0.203125 0.625 -0.203125 1.359375l0 3.625l-1.171875 0zm3.98526 -2.0625l1.15625 -0.1875q0.109375 0.703125 0.546875 1.078125q0.453125 0.359375 1.25 0.359375q0.8125 0 1.203125 -0.328125q0.390625 -0.328125 0.390625 -0.765625q0 -0.390625 -0.359375 -0.625q-0.234375 -0.15625 -1.1875 -0.390625q-1.296875 -0.328125 -1.796875 -0.5625q-0.484375 -0.25 -0.75 -0.65625q-0.25 -0.421875 -0.25 -0.9375q0 -0.453125 0.203125 -0.84375q0.21875 -0.40625 0.578125 -0.671875q0.28125 -0.1875 0.75 -0.328125q0.46875 -0.140625 1.015625 -0.140625q0.8125 0 1.421875 0.234375q0.609375 0.234375 0.90625 0.640625q0.296875 0.390625 0.40625 1.0625l-1.140625 0.15625q-0.078125 -0.53125 -0.453125 -0.828125q-0.375 -0.3125 -1.0625 -0.3125q-0.8125 0 -1.15625 0.265625q-0.34375 0.265625 -0.34375 0.625q0 0.234375 0.140625 0.421875q0.15625 0.1875 0.453125 0.3125q0.171875 0.0625 1.03125 0.296875q1.25 0.328125 1.734375 0.546875q0.5 0.203125 0.78125 0.609375q0.28125 0.40625 0.28125 1.0q0 0.59375 -0.34375 1.109375q-0.34375 0.515625 -1.0 0.796875q-0.640625 0.28125 -1.453125 0.28125q-1.34375 0 -2.046875 -0.5625q-0.703125 -0.5625 -0.90625 -1.65625zm10.82016 2.0625l0 -9.546875l1.171875 0l0 9.546875l-1.171875 0zm7.7111206 -2.21875l1.203125 0.140625q-0.28125 1.0625 -1.0625 1.65625q-0.765625 0.578125 -1.96875 0.578125q-1.515625 0 -2.40625 -0.9375q-0.890625 -0.9375 -0.890625 -2.609375q0 -1.75 0.890625 -2.703125q0.90625 -0.96875 2.34375 -0.96875q1.390625 0 2.265625 0.9375q0.875 0.9375 0.875 2.65625q0 0.109375 0 0.3125l-5.15625 0q0.0625 1.140625 0.640625 1.75q0.578125 0.59375 1.4375 0.59375q0.65625 0 1.109375 -0.328125q0.453125 -0.34375 0.71875 -1.078125zm-3.84375 -1.90625l3.859375 0q-0.078125 -0.859375 -0.4375 -1.296875q-0.5625 -0.6875 -1.453125 -0.6875q-0.8125 0 -1.359375 0.546875q-0.546875 0.53125 -0.609375 1.4375zm6.8031006 4.125l0 -6.0l-1.03125 0l0 -0.90625l1.03125 0l0 -0.734375q0 -0.703125 0.125 -1.046875q0.171875 -0.453125 0.59375 -0.734375q0.421875 -0.28125 1.203125 -0.28125q0.484375 0 1.09375 0.109375l-0.1875 1.03125q-0.359375 -0.0625 -0.6875 -0.0625q-0.53125 0 -0.75 0.234375q-0.21875 0.21875 -0.21875 0.84375l0 0.640625l1.34375 0l0 0.90625l-1.34375 0l0 6.0l-1.171875 0zm5.9842224 -1.046875l0.171875 1.03125q-0.5 0.109375 -0.890625 0.109375q-0.640625 0 -1.0 -0.203125q-0.34375 -0.203125 -0.484375 -0.53125q-0.140625 -0.328125 -0.140625 -1.390625l0 -3.96875l-0.859375 0l0 -0.90625l0.859375 0l0 -1.71875l1.171875 -0.703125l0 2.421875l1.171875 0l0 0.90625l-1.171875 0l0 4.046875q0 0.5 0.046875 0.640625q0.0625 0.140625 0.203125 0.234375q0.140625 0.078125 0.40625 0.078125q0.203125 0 0.515625 -0.046875z" fill-rule="nonzero"/></g></svg>