<svg version="1.1" viewBox="0.0 0.0 960.0 540.0" fill="none" stroke="none" stroke-linecap="square" stroke-miterlimit="10" xmlns:xlink="http://www.w3.org/1999/xlink" xmlns="http://www.w3.org/2000/svg"><clipPath id="gb37777a647_0_190.0"><path d="m0 0l960.0 0l0 540.0l-960.0 0l0 -540.0z" clip-rule="nonzero"/></clipPath><g clip-path="url(#gb37777a647_0_190.0)"><path fill="#ffffff" d="m0 0l960.0 0l0 540.0l-960.0 0z" fill-rule="evenodd"/><path fill="#eeeeee" d="m9.635171 18.688345l0 0c0 -5.946497 4.820588 -10.767085 10.767085 -10.767085l790.27686 0c2.8555908 0 5.5942383 1.1343861 7.6134644 3.1536064c2.019226 2.0192204 3.1535645 4.7578707 3.1535645 7.6134787l0 335.82016c0 5.9465027 -4.8205566 10.76709 -10.767029 10.76709l-790.27686 0c-5.946497 0 -10.767085 -4.820587 -10.767085 -10.76709z" fill-rule="evenodd"/><path stroke="#595959" stroke-width="1.0" stroke-linejoin="round" stroke-linecap="butt" d="m9.635171 18.688345l0 0c0 -5.946497 4.820588 -10.767085 10.767085 -10.767085l790.27686 0c2.8555908 0 5.5942383 1.1343861 7.6134644 3.1536064c2.019226 2.0192204 3.1535645 4.7578707 3.1535645 7.6134787l0 335.82016c0 5.9465027 -4.8205566 10.76709 -10.767029 10.76709l-790.27686 0c-5.946497 0 -10.767085 -4.820587 -10.767085 -10.76709z" fill-rule="evenodd"/><path fill="#ffffff" d="m9.635171 40.11811l811.811 0l0 307.21262l-811.811 0z" fill-rule="evenodd"/><path stroke="#595959" stroke-width="1.0" stroke-linejoin="round" stroke-linecap="butt" d="m9.635171 40.11811l811.811 0l0 307.21262l-811.811 0z" fill-rule="evenodd"/><path fill="#ffffff" d="m33.620266 12.3044615l592.12604 0l0 22.015747l-592.12604 0z" fill-rule="evenodd"/><path stroke="#595959" stroke-width="1.0" stroke-linejoin="round" stroke-linecap="butt" d="m33.620266 12.3044615l592.12604 0l0 22.015747l-592.12604 0z" fill-rule="evenodd"/><path fill="#000000" d="m43.72964 27.832336l0 -8.546875l0.984375 0l0 2.328125l-0.046875 1.375l0.03125 0q0.453125 -0.484375 0.96875 -0.796875q0.53125 -0.328125 1.21875 -0.328125q1.03125 0 1.515625 0.59375q0.5 0.59375 0.5 1.75l0 3.625l-0.984375 0l0 -3.484375q0 -0.828125 -0.3125 -1.234375q-0.3125 -0.40625 -1.03125 -0.40625q-0.265625 0 -0.5 0.078125q-0.21875 0.0625 -0.4375 0.1875q-0.203125 0.125 -0.4375 0.328125q-0.21875 0.203125 -0.484375 0.46875l0 4.0625l-0.984375 0zm10.825058 0.140625q-0.640625 0 -1.078125 -0.171875q-0.421875 -0.171875 -0.6875 -0.484375q-0.265625 -0.328125 -0.390625 -0.765625q-0.109375 -0.453125 -0.109375 -0.984375l0 -2.765625l-1.640625 0l0 -0.734375l1.6875 -0.0625l0.125 -1.875l0.8125 0l0 1.875l2.875 0l0 0.796875l-2.875 0l0 2.78125q0 0.390625 0.0625 0.6875q0.078125 0.296875 0.25 0.5q0.171875 0.203125 0.453125 0.3125q0.296875 0.09375 0.71875 0.09375q0.421875 0 0.75 -0.0625q0.34375 -0.078125 0.65625 -0.203125l0.203125 0.71875q-0.390625 0.140625 -0.828125 0.234375q-0.4375 0.109375 -0.984375 0.109375zm7.200058 0q-0.640625 0 -1.078125 -0.171875q-0.421875 -0.171875 -0.6875 -0.484375q-0.265625 -0.328125 -0.390625 -0.765625q-0.109375 -0.453125 -0.109375 -0.984375l0 -2.765625l-1.640625 0l0 -0.734375l1.6875 -0.0625l0.125 -1.875l0.8125 0l0 1.875l2.875 0l0 0.796875l-2.875 0l0 2.78125q0 0.390625 0.0625 0.6875q0.078125 0.296875 0.25 0.5q0.171875 0.203125 0.453125 0.3125q0.296875 0.09375 0.71875 0.09375q0.421875 0 0.75 -0.0625q0.34375 -0.078125 0.65625 -0.203125l0.203125 0.71875q-0.390625 0.140625 -0.828125 0.234375q-0.4375 0.109375 -0.984375 0.109375zm3.5750542 2.3125l0 -8.28125l0.828125 0l0.078125 0.734375l0.03125 0q0.40625 -0.375 0.9375 -0.625q0.546875 -0.25 1.078125 -0.25q0.59375 0 1.046875 0.203125q0.453125 0.203125 0.75 0.59375q0.3125 0.390625 0.46875 0.9375q0.15625 0.546875 0.15625 1.234375q0 0.75 -0.21875 1.328125q-0.21875 0.578125 -0.59375 0.984375q-0.359375 0.40625 -0.84375 0.625q-0.46875 0.203125 -1.0 0.203125q-0.40625 0 -0.890625 -0.1875q-0.46875 -0.203125 -0.84375 -0.5625l-0.046875 0l0.046875 1.09375l0 1.96875l-0.984375 0zm2.546875 -3.140625q0.796875 0 1.296875 -0.609375q0.5 -0.609375 0.5 -1.703125q0 -0.484375 -0.09375 -0.875q-0.09375 -0.390625 -0.296875 -0.671875q-0.1875 -0.296875 -0.5 -0.4375q-0.3125 -0.15625 -0.75 -0.15625q-0.375 0 -0.8125 0.203125q-0.4375 0.203125 -0.90625 0.671875l0 2.890625q0.421875 0.375 0.84375 0.53125q0.421875 0.15625 0.71875 0.15625zm7.137558 -3.46875q-0.40625 0 -0.6875 -0.265625q-0.28125 -0.28125 -0.28125 -0.734375q0 -0.453125 0.28125 -0.734375q0.28125 -0.296875 0.6875 -0.296875q0.421875 0 0.703125 0.296875q0.28125 0.28125 0.28125 0.734375q0 0.453125 -0.28125 0.734375q-0.28125 0.265625 -0.703125 0.265625zm0 4.296875q-0.40625 0 -0.6875 -0.265625q-0.28125 -0.28125 -0.28125 -0.734375q0 -0.453125 0.28125 -0.734375q0.28125 -0.296875 0.6875 -0.296875q0.421875 0 0.703125 0.296875q0.28125 0.28125 0.28125 0.734375q0 0.453125 -0.28125 0.734375q-0.28125 0.265625 -0.703125 0.265625zm4.793808 1.78125l3.9375 -10.4375l0.890625 0l-3.9375 10.4375l-0.890625 0zm7.200058 0l3.9375 -10.4375l0.890625 0l-3.9375 10.4375l-0.890625 0zm10.903183 -1.78125q-0.9375 0 -1.4375 -0.515625q-0.484375 -0.53125 -0.484375 -1.578125l0 -5.78125l-2.078125 0l0 -0.8125l3.0625 0l0 6.65625q0 0.65625 0.3125 0.9375q0.3125 0.28125 0.828125 0.28125q0.515625 0 1.09375 -0.265625l0.25 0.734375q-0.40625 0.171875 -0.75 0.25q-0.328125 0.09375 -0.796875 0.09375zm5.903183 0q-0.5625 0 -1.09375 -0.203125q-0.515625 -0.203125 -0.921875 -0.59375q-0.390625 -0.390625 -0.625 -0.953125q-0.234375 -0.578125 -0.234375 -1.296875q0 -0.734375 0.234375 -1.296875q0.234375 -0.578125 0.625 -0.96875q0.40625 -0.390625 0.921875 -0.59375q0.53125 -0.203125 1.09375 -0.203125q0.578125 0 1.09375 0.203125q0.53125 0.203125 0.921875 0.59375q0.40625 0.390625 0.640625 0.96875q0.234375 0.5625 0.234375 1.296875q0 0.71875 -0.234375 1.296875q-0.234375 0.5625 -0.640625 0.953125q-0.390625 0.390625 -0.921875 0.59375q-0.515625 0.203125 -1.09375 0.203125zm0 -0.8125q0.421875 0 0.765625 -0.15625q0.34375 -0.171875 0.59375 -0.453125q0.25 -0.296875 0.375 -0.703125q0.125 -0.421875 0.125 -0.921875q0 -0.5 -0.125 -0.90625q-0.125 -0.421875 -0.375 -0.71875q-0.25 -0.3125 -0.59375 -0.46875q-0.34375 -0.15625 -0.765625 -0.15625q-0.40625 0 -0.75 0.15625q-0.34375 0.15625 -0.59375 0.46875q-0.25 0.296875 -0.390625 0.71875q-0.125 0.40625 -0.125 0.90625q0 0.5 0.125 0.921875q0.140625 0.40625 0.390625 0.703125q0.25 0.28125 0.59375 0.453125q0.34375 0.15625 0.75 0.15625zm7.762558 0.8125q-0.6875 0 -1.28125 -0.203125q-0.578125 -0.203125 -1.015625 -0.59375q-0.421875 -0.390625 -0.671875 -0.953125q-0.234375 -0.578125 -0.234375 -1.296875q0 -0.734375 0.25 -1.296875q0.265625 -0.578125 0.703125 -0.96875q0.453125 -0.390625 1.046875 -0.59375q0.59375 -0.203125 1.265625 -0.203125q0.71875 0 1.234375 0.25q0.515625 0.25 0.890625 0.59375l-0.5 0.640625q-0.359375 -0.3125 -0.75 -0.484375q-0.390625 -0.1875 -0.84375 -0.1875q-0.5 0 -0.921875 0.15625q-0.421875 0.15625 -0.71875 0.46875q-0.296875 0.296875 -0.46875 0.71875q-0.15625 0.40625 -0.15625 0.90625q0 0.5 0.15625 0.921875q0.15625 0.40625 0.453125 0.703125q0.296875 0.28125 0.703125 0.453125q0.421875 0.15625 0.921875 0.15625q0.546875 0 0.984375 -0.203125q0.453125 -0.21875 0.828125 -0.53125l0.4375 0.640625q-0.5 0.421875 -1.09375 0.671875q-0.578125 0.234375 -1.21875 0.234375zm5.996933 0q-0.40625 0 -0.765625 -0.109375q-0.359375 -0.109375 -0.640625 -0.3125q-0.265625 -0.21875 -0.421875 -0.515625q-0.15625 -0.3125 -0.15625 -0.71875q0 -0.484375 0.234375 -0.84375q0.234375 -0.375 0.734375 -0.640625q0.515625 -0.265625 1.3125 -0.421875q0.8125 -0.171875 1.953125 -0.28125q-0.015625 -0.296875 -0.109375 -0.5625q-0.078125 -0.265625 -0.265625 -0.453125q-0.171875 -0.203125 -0.46875 -0.3125q-0.296875 -0.125 -0.71875 -0.125q-0.5625 0 -1.09375 0.21875q-0.53125 0.21875 -0.9375 0.46875l-0.390625 -0.671875q0.21875 -0.140625 0.515625 -0.28125q0.296875 -0.15625 0.625 -0.265625q0.328125 -0.125 0.703125 -0.203125q0.375 -0.078125 0.75 -0.078125q1.203125 0 1.78125 0.65625q0.59375 0.640625 0.59375 1.734375l0 3.578125l-0.8125 0l-0.078125 -0.796875l-0.046875 0q-0.484375 0.390625 -1.078125 0.671875q-0.59375 0.265625 -1.21875 0.265625zm0.265625 -0.78125q0.5 0 0.984375 -0.21875q0.484375 -0.234375 1.0 -0.65625l0 -1.53125q-0.9375 0.078125 -1.578125 0.203125q-0.625 0.125 -1.0 0.3125q-0.375 0.1875 -0.53125 0.421875q-0.15625 0.234375 -0.15625 0.53125q0 0.25 0.09375 0.421875q0.109375 0.171875 0.28125 0.296875q0.1875 0.109375 0.421875 0.171875q0.234375 0.046875 0.484375 0.046875zm8.871933 0.78125q-0.9375 0 -1.4375 -0.515625q-0.484375 -0.53125 -0.484375 -1.578125l0 -5.78125l-2.078125 0l0 -0.8125l3.0625 0l0 6.65625q0 0.65625 0.3125 0.9375q0.3125 0.28125 0.828125 0.28125q0.515625 0 1.0937576 -0.265625l0.25 0.734375q-0.40625763 0.171875 -0.7500076 0.25q-0.328125 0.09375 -0.796875 0.09375zm3.4188156 -0.140625l0 -8.546875l0.984375 0l0 2.328125l-0.046875 1.375l0.03125 0q0.453125 -0.484375 0.96875 -0.796875q0.53125 -0.328125 1.21875 -0.328125q1.03125 0 1.515625 0.59375q0.5 0.59375 0.5 1.75l0 3.625l-0.984375 0l0 -3.484375q0 -0.828125 -0.3125 -1.234375q-0.3125 -0.40625 -1.03125 -0.40625q-0.265625 0 -0.5 0.078125q-0.21875 0.0625 -0.4375 0.1875q-0.203125 0.125 -0.4375 0.328125q-0.21875 0.203125 -0.484375 0.46875l0 4.0625l-0.984375 0zm9.684433 0.140625q-0.5625 0 -1.09375 -0.203125q-0.515625 -0.203125 -0.921875 -0.59375q-0.390625 -0.390625 -0.625 -0.953125q-0.234375 -0.578125 -0.234375 -1.296875q0 -0.734375 0.234375 -1.296875q0.234375 -0.578125 0.625 -0.96875q0.40625 -0.390625 0.921875 -0.59375q0.53125 -0.203125 1.09375 -0.203125q0.578125 0 1.09375 0.203125q0.53125 0.203125 0.921875 0.59375q0.40625 0.390625 0.640625 0.96875q0.234375 0.5625 0.234375 1.296875q0 0.71875 -0.234375 1.296875q-0.234375 0.5625 -0.640625 0.953125q-0.390625 0.390625 -0.921875 0.59375q-0.515625 0.203125 -1.09375 0.203125zm0 -0.8125q0.421875 0 0.765625 -0.15625q0.34375 -0.171875 0.59375 -0.453125q0.25 -0.296875 0.375 -0.703125q0.125 -0.421875 0.125 -0.921875q0 -0.5 -0.125 -0.90625q-0.125 -0.421875 -0.375 -0.71875q-0.25 -0.3125 -0.59375 -0.46875q-0.34375 -0.15625 -0.765625 -0.15625q-0.40625 0 -0.75 0.15625q-0.34375 0.15625 -0.59375 0.46875q-0.25 0.296875 -0.390625 0.71875q-0.125 0.40625 -0.125 0.90625q0 0.5 0.125 0.921875q0.140625 0.40625 0.390625 0.703125q0.25 0.28125 0.59375 0.453125q0.34375 0.15625 0.75 0.15625zm7.325058 0.8125q-0.859375 0 -1.59375 -0.265625q-0.734375 -0.265625 -1.265625 -0.640625l0.453125 -0.65625q0.5 0.359375 1.109375 0.578125q0.609375 0.21875 1.421875 0.21875q0.734375 0 1.09375 -0.265625q0.375 -0.265625 0.375 -0.640625q0 -0.171875 -0.0625 -0.3125q-0.046875 -0.140625 -0.25 -0.265625q-0.203125 -0.140625 -0.5625 -0.265625q-0.359375 -0.125 -0.953125 -0.234375q-1.125 -0.25 -1.703125 -0.640625q-0.5625 -0.40625 -0.5625 -1.0625q0 -0.359375 0.15625 -0.65625q0.15625 -0.3125 0.453125 -0.53125q0.3125 -0.21875 0.75 -0.34375q0.453125 -0.125 1.0625 -0.125q0.671875 0 1.296875 0.21875q0.625 0.21875 1.046875 0.515625l-0.46875 0.640625q-0.421875 -0.28125 -0.921875 -0.4375q-0.484375 -0.171875 -1.046875 -0.171875q-0.734375 0 -1.046875 0.25q-0.296875 0.25 -0.296875 0.578125q0 0.390625 0.390625 0.59375q0.40625 0.1875 1.3125 0.390625q0.71875 0.15625 1.1875 0.328125q0.46875 0.171875 0.734375 0.390625q0.28125 0.21875 0.375 0.484375q0.109375 0.25 0.109375 0.59375q0 0.359375 -0.171875 0.671875q-0.171875 0.3125 -0.5 0.5625q-0.328125 0.234375 -0.8125 0.359375q-0.484375 0.140625 -1.109375 0.140625zm8.215683 0q-0.640625 0 -1.078125 -0.171875q-0.421875 -0.171875 -0.6875 -0.484375q-0.265625 -0.328125 -0.390625 -0.765625q-0.109375 -0.453125 -0.109375 -0.984375l0 -2.765625l-1.640625 0l0 -0.734375l1.6875 -0.0625l0.125 -1.875l0.8125 0l0 1.875l2.875 0l0 0.796875l-2.875 0l0 2.78125q0 0.390625 0.0625 0.6875q0.078125 0.296875 0.25 0.5q0.171875 0.203125 0.453125 0.3125q0.296875 0.09375 0.71875 0.09375q0.421875 0 0.75 -0.0625q0.34375 -0.078125 0.65625 -0.203125l0.203125 0.71875q-0.390625 0.140625 -0.828125 0.234375q-0.4375 0.109375 -0.984375 0.109375zm6.059433 -4.296875q-0.40625 0 -0.6875 -0.265625q-0.28125 -0.28125 -0.28125 -0.734375q0 -0.453125 0.28125 -0.734375q0.28125 -0.296875 0.6875 -0.296875q0.421875 0 0.703125 0.296875q0.28125 0.28125 0.28125 0.734375q0 0.453125 -0.28125 0.734375q-0.28125 0.265625 -0.703125 0.265625zm0 4.296875q-0.40625 0 -0.6875 -0.265625q-0.28125 -0.28125 -0.28125 -0.734375q0 -0.453125 0.28125 -0.734375q0.28125 -0.296875 0.6875 -0.296875q0.421875 0 0.703125 0.296875q0.28125 0.28125 0.28125 0.734375q0 0.453125 -0.28125 0.734375q-0.28125 0.265625 -0.703125 0.265625zm8.028183 -0.140625l0 -2.109375l-3.953125 0l0 -0.65625l3.828125 -4.890625l1.0625 0l0 4.75l1.1875 0l0 0.796875l-1.1875 0l0 2.109375l-0.9375 0zm-2.859375 -2.90625l2.859375 0l0 -2.375q0 -0.3125 0.015625 -0.671875q0.015625 -0.375 0.03125 -0.6875l-0.046875 0q-0.1875 0.28125 -0.390625 0.5625q-0.203125 0.28125 -0.390625 0.5625l-2.078125 2.609375zm6.512558 2.90625l0 -0.59375q0.96875 -0.859375 1.71875 -1.546875q0.75 -0.703125 1.265625 -1.28125q0.515625 -0.59375 0.765625 -1.09375q0.265625 -0.5 0.265625 -0.984375q0 -0.65625 -0.40625 -1.078125q-0.40625 -0.421875 -1.25 -0.421875q-0.546875 0 -1.015625 0.28125q-0.453125 0.265625 -0.828125 0.640625l-0.5625 -0.5625q0.515625 -0.515625 1.109375 -0.828125q0.59375 -0.328125 1.40625 -0.328125q0.578125 0 1.03125 0.171875q0.46875 0.15625 0.796875 0.453125q0.328125 0.28125 0.5 0.703125q0.171875 0.421875 0.171875 0.921875q0 0.546875 -0.265625 1.09375q-0.25 0.546875 -0.71875 1.125q-0.46875 0.578125 -1.125 1.21875q-0.640625 0.625 -1.421875 1.328125q0.359375 -0.015625 0.71875 -0.046875q0.359375 -0.03125 0.71875 -0.03125l2.515625 0l0 0.859375l-5.390625 0zm9.918808 0.140625q-1.28125 0 -2.015625 -1.03125q-0.71875 -1.046875 -0.71875 -2.96875q0 -1.921875 0.71875 -2.921875q0.734375 -1.015625 2.015625 -1.015625q1.296875 0 2.015625 1.015625q0.734375 1.0 0.734375 2.921875q0 1.921875 -0.734375 2.96875q-0.71875 1.03125 -2.015625 1.03125zm0 -0.78125q0.8125 0 1.3125 -0.78125q0.515625 -0.78125 0.515625 -2.4375q0 -0.828125 -0.140625 -1.421875q-0.125 -0.59375 -0.375 -0.96875q-0.234375 -0.390625 -0.578125 -0.578125q-0.328125 -0.1875 -0.734375 -0.1875q-0.390625 0 -0.734375 0.1875q-0.328125 0.1875 -0.578125 0.578125q-0.234375 0.375 -0.375 0.96875q-0.125 0.59375 -0.125 1.421875q0 1.65625 0.5 2.4375q0.515625 0.78125 1.3125 0.78125zm0 -2.484375q-0.296875 0 -0.515625 -0.203125q-0.21875 -0.21875 -0.21875 -0.609375q0 -0.375 0.21875 -0.578125q0.21875 -0.21875 0.515625 -0.21875q0.3125 0 0.53125 0.21875q0.21875 0.203125 0.21875 0.578125q0 0.390625 -0.21875 0.609375q-0.21875 0.203125 -0.53125 0.203125zm7.200058 3.265625q-1.28125 0 -2.015625 -1.03125q-0.71875 -1.046875 -0.71875 -2.96875q0 -1.921875 0.71875 -2.921875q0.734375 -1.015625 2.015625 -1.015625q1.296875 0 2.015625 1.015625q0.734375 1.0 0.734375 2.921875q0 1.921875 -0.734375 2.96875q-0.71875 1.03125 -2.015625 1.03125zm0 -0.78125q0.8125 0 1.3125 -0.78125q0.515625 -0.78125 0.515625 -2.4375q0 -0.828125 -0.140625 -1.421875q-0.125 -0.59375 -0.375 -0.96875q-0.234375 -0.390625 -0.578125 -0.578125q-0.328125 -0.1875 -0.734375 -0.1875q-0.390625 0 -0.734375 0.1875q-0.328125 0.1875 -0.578125 0.578125q-0.234375 0.375 -0.375 0.96875q-0.125 0.59375 -0.125 1.421875q0 1.65625 0.5 2.4375q0.515625 0.78125 1.3125 0.78125zm0 -2.484375q-0.296875 0 -0.515625 -0.203125q-0.21875 -0.21875 -0.21875 -0.609375q0 -0.375 0.21875 -0.578125q0.21875 -0.21875 0.515625 -0.21875q0.3125 0 0.53125 0.21875q0.21875 0.203125 0.21875 0.578125q0 0.390625 -0.21875 0.609375q-0.21875 0.203125 -0.53125 0.203125zm4.793808 5.046875l3.9375 -10.4375l0.890625 0l-3.9375 10.4375l-0.890625 0z" fill-rule="nonzero"/><path fill="#000000" fill-opacity="0.0" d="m31.968504 61.233597l304.0315 0l0 35.46457l-304.0315 0z" fill-rule="evenodd"/><path fill="#000000" d="m51.937252 83.466095l1.765625 0.453125q-0.5625 2.171875 -2.0 3.328125q-1.4375 1.140625 -3.53125 1.140625q-2.15625 0 -3.515625 -0.875q-1.34375 -0.890625 -2.0625 -2.546875q-0.703125 -1.671875 -0.703125 -3.59375q0 -2.078125 0.796875 -3.625q0.796875 -1.5625 2.265625 -2.359375q1.484375 -0.8125 3.25 -0.8125q2.0 0 3.359375 1.015625q1.375 1.015625 1.90625 2.875l-1.734375 0.40625q-0.46875 -1.453125 -1.359375 -2.109375q-0.875 -0.671875 -2.203125 -0.671875q-1.546875 0 -2.578125 0.734375q-1.03125 0.734375 -1.453125 1.984375q-0.421875 1.234375 -0.421875 2.5625q0 1.703125 0.5 2.96875q0.5 1.265625 1.546875 1.90625q1.046875 0.625 2.265625 0.625q1.484375 0 2.515625 -0.859375q1.03125 -0.859375 1.390625 -2.546875zm10.363571 1.578125l1.6875 0.203125q-0.40625 1.484375 -1.484375 2.3125q-1.078125 0.8125 -2.765625 0.8125q-2.125 0 -3.375 -1.296875q-1.234375 -1.3125 -1.234375 -3.671875q0 -2.453125 1.25 -3.796875q1.265625 -1.34375 3.265625 -1.34375q1.9375 0 3.15625 1.328125q1.2343788 1.3125 1.2343788 3.703125q0 0.15625 0 0.4375l-7.218754 0q0.09375 1.59375 0.90625 2.453125q0.8125 0.84375 2.015625 0.84375q0.90625 0 1.546875 -0.46875q0.640625 -0.484375 1.015625 -1.515625zm-5.390625 -2.65625l5.40625 0q-0.109375 -1.21875 -0.625 -1.828125q-0.78125 -0.953125 -2.03125 -0.953125q-1.125 0 -1.90625 0.765625q-0.765625 0.75 -0.84375 2.015625zm9.094471 5.765625l0 -13.359375l1.640625 0l0 13.359375l-1.640625 0zm3.5354462 -2.890625l1.625 -0.25q0.125 0.96875 0.75 1.5q0.625 0.515625 1.75 0.515625q1.125 0 1.671875 -0.453125q0.546875 -0.46875 0.546875 -1.09375q0 -0.546875 -0.484375 -0.875q-0.328125 -0.21875 -1.671875 -0.546875q-1.8125 -0.46875 -2.515625 -0.796875q-0.6875 -0.328125 -1.046875 -0.90625q-0.359375 -0.59375 -0.359375 -1.3125q0 -0.640625 0.296875 -1.1875q0.296875 -0.5625 0.8125 -0.921875q0.375 -0.28125 1.03125 -0.46875q0.671875 -0.203125 1.421875 -0.203125q1.140625 0 2.0 0.328125q0.859375 0.328125 1.265625 0.890625q0.421875 0.5625 0.578125 1.5l-1.609375 0.21875q-0.109375 -0.75 -0.640625 -1.171875q-0.515625 -0.421875 -1.46875 -0.421875q-1.140625 0 -1.625 0.375q-0.46875 0.375 -0.46875 0.875q0 0.3125 0.1875 0.578125q0.203125 0.265625 0.640625 0.4375q0.234375 0.09375 1.4375 0.421875q1.75 0.453125 2.4375 0.75q0.6875 0.296875 1.078125 0.859375q0.390625 0.5625 0.390625 1.40625q0 0.828125 -0.484375 1.546875q-0.46875 0.71875 -1.375 1.125q-0.90625 0.390625 -2.046875 0.390625q-1.875 0 -2.875 -0.78125q-0.984375 -0.78125 -1.25 -2.328125zm9.984375 -8.578125l0 -1.890625l1.640625 0l0 1.890625l-1.640625 0zm0 11.46875l0 -9.671875l1.640625 0l0 9.671875l-1.640625 0zm10.472946 0l0 -1.421875q-1.125 1.640625 -3.0625 1.640625q-0.859375 0 -1.609375 -0.328125q-0.734375 -0.328125 -1.09375 -0.828125q-0.359375 -0.5 -0.5 -1.21875q-0.109375 -0.46875 -0.109375 -1.53125l0 -5.984375l1.640625 0l0 5.359375q0 1.28125 0.109375 1.734375q0.15625 0.640625 0.65625 1.015625q0.5 0.375 1.234375 0.375q0.734375 0 1.375 -0.375q0.65625 -0.390625 0.921875 -1.03125q0.265625 -0.65625 0.265625 -1.890625l0 -5.1875l1.640625 0l0 9.671875l-1.46875 0zm3.3913422 -2.890625l1.625 -0.25q0.125 0.96875 0.75 1.5q0.625 0.515625 1.75 0.515625q1.125 0 1.671875 -0.453125q0.546875 -0.46875 0.546875 -1.09375q0 -0.546875 -0.484375 -0.875q-0.328125 -0.21875 -1.671875 -0.546875q-1.8125 -0.46875 -2.515625 -0.796875q-0.6875 -0.328125 -1.046875 -0.90625q-0.359375 -0.59375 -0.359375 -1.3125q0 -0.640625 0.296875 -1.1875q0.296875 -0.5625 0.8125 -0.921875q0.375 -0.28125 1.03125 -0.46875q0.671875 -0.203125 1.421875 -0.203125q1.140625 0 2.0 0.328125q0.859375 0.328125 1.265625 0.890625q0.421875 0.5625 0.578125 1.5l-1.609375 0.21875q-0.109375 -0.75 -0.640625 -1.171875q-0.515625 -0.421875 -1.46875 -0.421875q-1.140625 0 -1.625 0.375q-0.46875 0.375 -0.46875 0.875q0 0.3125 0.1875 0.578125q0.203125 0.265625 0.640625 0.4375q0.234375 0.09375 1.4375 0.421875q1.75 0.453125 2.4375 0.75q0.6875 0.296875 1.078125 0.859375q0.390625 0.5625 0.390625 1.40625q0 0.828125 -0.484375 1.546875q-0.46875 0.71875 -1.375 1.125q-0.90625 0.390625 -2.046875 0.390625q-1.875 0 -2.875 -0.78125q-0.984375 -0.78125 -1.25 -2.328125zm18.745804 1.421875l0.234375 1.453125q-0.6875 0.140625 -1.234375 0.140625q-0.890625 0 -1.390625 -0.28125q-0.484375 -0.28125 -0.6875 -0.734375q-0.203125 -0.46875 -0.203125 -1.9375l0 -5.578125l-1.203125 0l0 -1.265625l1.203125 0l0 -2.390625l1.625 -0.984375l0 3.375l1.65625 0l0 1.265625l-1.65625 0l0 5.671875q0 0.6875 0.078125 0.890625q0.09375 0.203125 0.28125 0.328125q0.203125 0.109375 0.578125 0.109375q0.265625 0 0.71875 -0.0625zm0.99580383 -3.375q0 -2.6875 1.484375 -3.96875q1.25 -1.078125 3.046875 -1.078125q2.0 0 3.265625 1.3125q1.265625 1.296875 1.265625 3.609375q0 1.859375 -0.5625 2.9375q-0.5625 1.0625 -1.640625 1.65625q-1.0625 0.59375 -2.328125 0.59375q-2.03125 0 -3.28125 -1.296875q-1.25 -1.3125 -1.25 -3.765625zm1.6875 0q0 1.859375 0.796875 2.796875q0.8125 0.921875 2.046875 0.921875q1.21875 0 2.03125 -0.921875q0.8125 -0.9375 0.8125 -2.84375q0 -1.796875 -0.8125 -2.71875q-0.8125 -0.921875 -2.03125 -0.921875q-1.234375 0 -2.046875 0.921875q-0.796875 0.90625 -0.796875 2.765625zm14.777771 4.84375l0 -13.359375l9.015625 0l0 1.578125l-7.25 0l0 4.140625l6.265625 0l0 1.578125l-6.265625 0l0 6.0625l-1.765625 0zm17.411606 -1.1875q-0.921875 0.765625 -1.765625 1.09375q-0.828125 0.3125 -1.796875 0.3125q-1.59375 0 -2.453125 -0.78125q-0.859375 -0.78125 -0.859375 -1.984375q0 -0.71875 0.328125 -1.296875q0.328125 -0.59375 0.84375 -0.9375q0.53125 -0.359375 1.1875 -0.546875q0.46875 -0.125 1.453125 -0.25q1.984375 -0.234375 2.921875 -0.5625q0.015625 -0.34375 0.015625 -0.421875q0 -1.0 -0.46875 -1.421875q-0.625 -0.546875 -1.875 -0.546875q-1.15625 0 -1.703125 0.40625q-0.546875 0.40625 -0.8125 1.421875l-1.609375 -0.21875q0.21875 -1.015625 0.71875 -1.640625q0.5 -0.640625 1.453125 -0.984375q0.953125 -0.34375 2.1875 -0.34375q1.25 0 2.015625 0.296875q0.78125 0.28125 1.140625 0.734375q0.375 0.4375 0.515625 1.109375q0.078125 0.421875 0.078125 1.515625l0 2.1875q0 2.28125 0.109375 2.890625q0.109375 0.59375 0.40625 1.15625l-1.703125 0q-0.265625 -0.515625 -0.328125 -1.1875zm-0.140625 -3.671875q-0.890625 0.375 -2.671875 0.625q-1.015625 0.140625 -1.4375 0.328125q-0.421875 0.1875 -0.65625 0.53125q-0.21875 0.34375 -0.21875 0.78125q0 0.65625 0.5 1.09375q0.5 0.4375 1.453125 0.4375q0.9375 0 1.671875 -0.40625q0.75 -0.421875 1.09375 -1.140625q0.265625 -0.5625 0.265625 -1.640625l0 -0.609375zm4.203842 4.859375l0 -13.359375l1.640625 0l0 4.796875q1.140625 -1.328125 2.890625 -1.328125q1.078125 0 1.859375 0.421875q0.796875 0.421875 1.140625 1.171875q0.34375 0.75 0.34375 2.171875l0 6.125l-1.640625 0l0 -6.125q0 -1.234375 -0.53125 -1.796875q-0.53125 -0.5625 -1.515625 -0.5625q-0.71875 0 -1.359375 0.390625q-0.640625 0.375 -0.921875 1.015625q-0.265625 0.640625 -0.265625 1.78125l0 5.296875l-1.640625 0zm10.360092 0l0 -9.671875l1.46875 0l0 1.46875q0.5625 -1.03125 1.03125 -1.359375q0.484375 -0.328125 1.0625 -0.328125q0.828125 0 1.6875 0.53125l-0.5625 1.515625q-0.609375 -0.359375 -1.203125 -0.359375q-0.546875 0 -0.96875 0.328125q-0.421875 0.328125 -0.609375 0.890625q-0.28125 0.875 -0.28125 1.921875l0 5.0625l-1.625 0zm12.853302 -3.109375l1.6875 0.203125q-0.40625 1.484375 -1.484375 2.3125q-1.078125 0.8125 -2.765625 0.8125q-2.125 0 -3.375 -1.296875q-1.234375 -1.3125 -1.234375 -3.671875q0 -2.453125 1.25 -3.796875q1.265625 -1.34375 3.265625 -1.34375q1.9375 0 3.15625 1.328125q1.234375 1.3125 1.234375 3.703125q0 0.15625 0 0.4375l-7.21875 0q0.09375 1.59375 0.90625 2.453125q0.8125 0.84375 2.015625 0.84375q0.90625 0 1.546875 -0.46875q0.640625 -0.484375 1.015625 -1.515625zm-5.390625 -2.65625l5.40625 0q-0.109375 -1.21875 -0.625 -1.828125q-0.78125 -0.953125 -2.03125 -0.953125q-1.125 0 -1.90625 0.765625q-0.765625 0.75 -0.84375 2.015625zm9.141342 5.765625l0 -9.671875l1.46875 0l0 1.375q1.0625 -1.59375 3.078125 -1.59375q0.875 0 1.609375 0.3125q0.734375 0.3125 1.09375 0.828125q0.375 0.5 0.515625 1.203125q0.09375 0.453125 0.09375 1.59375l0 5.953125l-1.640625 0l0 -5.890625q0 -1.0 -0.203125 -1.484375q-0.1875 -0.5 -0.671875 -0.796875q-0.484375 -0.296875 -1.140625 -0.296875q-1.046875 0 -1.8125 0.671875q-0.75 0.65625 -0.75 2.515625l0 5.28125l-1.640625 0zm10.375717 0l0 -13.359375l1.640625 0l0 4.796875q1.140625 -1.328125 2.890625 -1.328125q1.078125 0 1.859375 0.421875q0.796875 0.421875 1.140625 1.171875q0.34375 0.75 0.34375 2.171875l0 6.125l-1.640625 0l0 -6.125q0 -1.234375 -0.53125 -1.796875q-0.53125 -0.5625 -1.515625 -0.5625q-0.71875 0 -1.359375 0.390625q-0.640625 0.375 -0.921875 1.015625q-0.265625 0.640625 -0.265625 1.78125l0 5.296875l-1.640625 0zm17.000717 -3.109375l1.6875 0.203125q-0.40625 1.484375 -1.484375 2.3125q-1.078125 0.8125 -2.765625 0.8125q-2.125 0 -3.375 -1.296875q-1.234375 -1.3125 -1.234375 -3.671875q0 -2.453125 1.25 -3.796875q1.265625 -1.34375 3.265625 -1.34375q1.9375 0 3.15625 1.328125q1.234375 1.3125 1.234375 3.703125q0 0.15625 0 0.4375l-7.21875 0q0.09375 1.59375 0.90625 2.453125q0.8125 0.84375 2.015625 0.84375q0.90625 0 1.546875 -0.46875q0.640625 -0.484375 1.015625 -1.515625zm-5.390625 -2.65625l5.40625 0q-0.109375 -1.21875 -0.625 -1.828125q-0.78125 -0.953125 -2.03125 -0.953125q-1.125 0 -1.90625 0.765625q-0.765625 0.75 -0.84375 2.015625zm9.141342 -5.703125l0 -1.890625l1.640625 0l0 1.890625l-1.640625 0zm0 11.46875l0 -9.671875l1.640625 0l0 9.671875l-1.640625 0zm7.722946 -1.46875l0.234375 1.453125q-0.6875 0.140625 -1.234375 0.140625q-0.890625 0 -1.390625 -0.28125q-0.484375 -0.28125 -0.6875 -0.734375q-0.203125 -0.46875 -0.203125 -1.9375l0 -5.578125l-1.203125 0l0 -1.265625l1.203125 0l0 -2.390625l1.625 -0.984375l0 3.375l1.65625 0l0 1.265625l-1.65625 0l0 5.671875q0 0.6875 0.078125 0.890625q0.09375 0.203125 0.28125 0.328125q0.203125 0.109375 0.578125 0.109375q0.265625 0 0.71875 -0.0625zm16.522858 -3.21875l1.765625 0.453125q-0.5625 2.171875 -2.0 3.328125q-1.4375 1.140625 -3.53125 1.140625q-2.15625 0 -3.515625 -0.875q-1.34375 -0.890625 -2.0625 -2.546875q-0.703125 -1.671875 -0.703125 -3.59375q0 -2.078125 0.796875 -3.625q0.796875 -1.5625 2.265625 -2.359375q1.484375 -0.8125 3.25 -0.8125q2.0 0 3.359375 1.015625q1.375 1.015625 1.90625 2.875l-1.734375 0.40625q-0.46875 -1.453125 -1.359375 -2.109375q-0.875 -0.671875 -2.203125 -0.671875q-1.546875 0 -2.578125 0.734375q-1.03125 0.734375 -1.453125 1.984375q-0.421875 1.234375 -0.421875 2.5625q0 1.703125 0.5 2.96875q0.5 1.265625 1.546875 1.90625q1.046875 0.625 2.265625 0.625q1.484375 0 2.515625 -0.859375q1.03125 -0.859375 1.390625 -2.546875zm3.1291962 -0.15625q0 -2.6875 1.484375 -3.96875q1.25 -1.078125 3.046875 -1.078125q2.0 0 3.265625 1.3125q1.265625 1.296875 1.265625 3.609375q0 1.859375 -0.5625 2.9375q-0.5625 1.0625 -1.640625 1.65625q-1.0625 0.59375 -2.328125 0.59375q-2.03125 0 -3.28125 -1.296875q-1.25 -1.3125 -1.25 -3.765625zm1.6875 0q0 1.859375 0.796875 2.796875q0.8125 0.921875 2.046875 0.921875q1.21875 0 2.03125 -0.921875q0.8125 -0.9375 0.8125 -2.84375q0 -1.796875 -0.8125 -2.71875q-0.8125 -0.921875 -2.03125 -0.921875q-1.234375 0 -2.046875 0.921875q-0.796875 0.90625 -0.796875 2.765625zm9.297592 4.84375l0 -9.671875l1.46875 0l0 1.375q1.0625 -1.59375 3.078125 -1.59375q0.875 0 1.609375 0.3125q0.734375 0.3125 1.09375 0.828125q0.375 0.5 0.515625 1.203125q0.09375 0.453125 0.09375 1.59375l0 5.953125l-1.640625 0l0 -5.890625q0 -1.0 -0.203125 -1.484375q-0.1875 -0.5 -0.671875 -0.796875q-0.484375 -0.296875 -1.140625 -0.296875q-1.046875 0 -1.8125 0.671875q-0.75 0.65625 -0.75 2.515625l0 5.28125l-1.640625 0zm13.063217 0l-3.6875 -9.671875l1.734375 0l2.078125 5.796875q0.328125 0.9375 0.625 1.9375q0.203125 -0.765625 0.609375 -1.828125l2.140625 -5.90625l1.6875 0l-3.65625 9.671875l-1.53125 0zm13.265625 -3.109375l1.6875 0.203125q-0.40625 1.484375 -1.484375 2.3125q-1.078125 0.8125 -2.765625 0.8125q-2.125 0 -3.375 -1.296875q-1.234375 -1.3125 -1.234375 -3.671875q0 -2.453125 1.25 -3.796875q1.265625 -1.34375 3.265625 -1.34375q1.9375 0 3.15625 1.328125q1.234375 1.3125 1.234375 3.703125q0 0.15625 0 0.4375l-7.21875 0q0.09375 1.59375 0.90625 2.453125q0.8125 0.84375 2.015625 0.84375q0.90625 0 1.546875 -0.46875q0.640625 -0.484375 1.015625 -1.515625zm-5.390625 -2.65625l5.40625 0q-0.109375 -1.21875 -0.625 -1.828125q-0.78125 -0.953125 -2.03125 -0.953125q-1.125 0 -1.90625 0.765625q-0.765625 0.75 -0.84375 2.015625zm9.125702 5.765625l0 -9.671875l1.46875 0l0 1.46875q0.5625 -1.03125 1.03125 -1.359375q0.484375 -0.328125 1.0625 -0.328125q0.828125 0 1.6875 0.53125l-0.5625 1.515625q-0.609375 -0.359375 -1.203125 -0.359375q-0.546875 0 -0.96875 0.328125q-0.421875 0.328125 -0.609375 0.890625q-0.28125 0.875 -0.28125 1.921875l0 5.0625l-1.625 0zm9.806427 -1.46875l0.234375 1.453125q-0.6875 0.140625 -1.234375 0.140625q-0.890625 0 -1.390625 -0.28125q-0.484375 -0.28125 -0.6875 -0.734375q-0.203125 -0.46875 -0.203125 -1.9375l0 -5.578125l-1.203125 0l0 -1.265625l1.203125 0l0 -2.390625l1.625 -0.984375l0 3.375l1.65625 0l0 1.265625l-1.65625 0l0 5.671875q0 0.6875 0.078125 0.890625q0.09375 0.203125 0.28125 0.328125q0.203125 0.109375 0.578125 0.109375q0.265625 0 0.71875 -0.0625zm8.230194 -1.640625l1.6875 0.203125q-0.40625 1.484375 -1.484375 2.3125q-1.078125 0.8125 -2.765625 0.8125q-2.125 0 -3.375 -1.296875q-1.234375 -1.3125 -1.234375 -3.671875q0 -2.453125 1.25 -3.796875q1.265625 -1.34375 3.265625 -1.34375q1.9375 0 3.15625 1.328125q1.234375 1.3125 1.234375 3.703125q0 0.15625 0 0.4375l-7.21875 0q0.09375 1.59375 0.90625 2.453125q0.8125 0.84375 2.015625 0.84375q0.90625 0 1.546875 -0.46875q0.640625 -0.484375 1.015625 -1.515625zm-5.390625 -2.65625l5.40625 0q-0.109375 -1.21875 -0.625 -1.828125q-0.78125 -0.953125 -2.03125 -0.953125q-1.125 0 -1.90625 0.765625q-0.765625 0.75 -0.84375 2.015625zm9.125732 5.765625l0 -9.671875l1.46875 0l0 1.46875q0.5625 -1.03125 1.03125 -1.359375q0.484375 -0.328125 1.0625 -0.328125q0.828125 0 1.6875 0.53125l-0.5625 1.515625q-0.609375 -0.359375 -1.203125 -0.359375q-0.546875 0 -0.96875 0.328125q-0.421875 0.328125 -0.609375 0.890625q-0.28125 0.875 -0.28125 1.921875l0 5.0625l-1.625 0z" fill-rule="nonzero"/><path fill="#ffffff" d="m121.732285 112.99213l261.29132 0l0 20.59842l-261.29132 0z" fill-rule="evenodd"/><path stroke="#595959" stroke-width="1.0" stroke-linejoin="round" stroke-linecap="butt" d="m121.732285 112.99213l261.29132 0l0 20.59842l-261.29132 0z" fill-rule="evenodd"/><path fill="#000000" d="m131.27916 123.388214q0 -1.6875 0.34375 -2.71875q0.359375 -1.03125 1.046875 -1.59375q0.6875 -0.5625 1.71875 -0.5625q0.78125 0 1.359375 0.3125q0.578125 0.296875 0.953125 0.890625q0.375 0.578125 0.59375 1.421875q0.21875 0.828125 0.21875 2.25q0 1.671875 -0.359375 2.703125q-0.34375 1.03125 -1.03125 1.59375q-0.671875 0.5625 -1.734375 0.5625q-1.375 0 -2.15625 -0.984375q-0.953125 -1.1875 -0.953125 -3.875zm1.203125 0q0 2.34375 0.546875 3.125q0.5625 0.78125 1.359375 0.78125q0.8125 0 1.359375 -0.78125q0.5625 -0.78125 0.5625 -3.125q0 -2.359375 -0.5625 -3.125q-0.546875 -0.78125 -1.359375 -0.78125q-0.8125 0 -1.296875 0.6875q-0.609375 0.875 -0.609375 3.21875z" fill-rule="nonzero"/><path fill="#000000" fill-opacity="0.0" d="m31.968504 105.55905l89.76378 0l0 35.46457l-89.76378 0z" fill-rule="evenodd"/><path fill="#000000" d="m49.577877 124.96718l1.390625 0.34375q-0.4375 1.703125 -1.578125 2.609375q-1.125 0.890625 -2.765625 0.890625q-1.6875 0 -2.75 -0.6875q-1.0625 -0.6875 -1.625 -2.0q-0.546875 -1.3125 -0.546875 -2.8125q0 -1.640625 0.625 -2.859375q0.625 -1.21875 1.78125 -1.84375q1.15625 -0.640625 2.546875 -0.640625q1.5625 0 2.640625 0.8125q1.078125 0.796875 1.5 2.25l-1.375 0.3125q-0.359375 -1.140625 -1.0625 -1.65625q-0.6875 -0.53125 -1.734375 -0.53125q-1.21875 0 -2.03125 0.578125q-0.8125 0.578125 -1.140625 1.5625q-0.328125 0.96875 -0.328125 2.015625q0 1.328125 0.390625 2.328125q0.390625 1.0 1.21875 1.5q0.828125 0.484375 1.78125 0.484375q1.171875 0 1.96875 -0.671875q0.8125 -0.671875 1.09375 -1.984375zm8.146774 1.21875l1.328125 0.171875q-0.3125 1.171875 -1.171875 1.8125q-0.84375 0.640625 -2.171875 0.640625q-1.671875 0 -2.65625 -1.015625q-0.96875 -1.03125 -0.96875 -2.890625q0 -1.921875 0.984375 -2.96875q1.0 -1.0625 2.578125 -1.0625q1.515625 0 2.484375 1.03125q0.96875 1.03125 0.96875 2.921875q0 0.109375 -0.015625 0.34375l-5.65625 0q0.0625 1.25 0.703125 1.921875q0.640625 0.65625 1.59375 0.65625q0.703125 0 1.203125 -0.359375q0.5 -0.375 0.796875 -1.203125zm-4.234375 -2.078125l4.25 0q-0.09375 -0.953125 -0.484375 -1.4375q-0.625 -0.75 -1.609375 -0.75q-0.875 0 -1.484375 0.59375q-0.609375 0.59375 -0.671875 1.59375zm7.151108 4.53125l0 -10.484375l1.28125 0l0 10.484375l-1.28125 0zm8.240528 -2.78125l1.265625 0.15625q-0.203125 1.3125 -1.0625 2.0625q-0.84375 0.734375 -2.09375 0.734375q-1.5625 0 -2.515625 -1.015625q-0.9375038 -1.03125 -0.9375038 -2.921875q0 -1.234375 0.40625 -2.15625q0.4062538 -0.921875 1.2343788 -1.375q0.84375 -0.46875 1.8125 -0.46875q1.25 0 2.03125 0.625q0.78125 0.625 1.015625 1.765625l-1.265625 0.203125q-0.171875 -0.765625 -0.625 -1.15625q-0.453125 -0.390625 -1.09375 -0.390625q-0.984375 0 -1.59375 0.703125q-0.609375 0.703125 -0.609375 2.203125q0 1.53125 0.578125 2.234375q0.59375 0.6875 1.546875 0.6875q0.75 0 1.265625 -0.453125q0.515625 -0.46875 0.640625 -1.4375zm2.375 -6.234375l0 -1.46875l1.296875 0l0 1.46875l-1.296875 0zm0 9.015625l0 -7.59375l1.296875 0l0 7.59375l-1.296875 0zm8.240524 0l0 -1.109375q-0.890625 1.28125 -2.421875 1.28125q-0.671875 0 -1.25 -0.25q-0.578125 -0.265625 -0.875 -0.65625q-0.28125 -0.390625 -0.390625 -0.953125q-0.078125 -0.375 -0.078125 -1.203125l0 -4.703125l1.28125 0l0 4.203125q0 1.015625 0.078125 1.359375q0.125 0.515625 0.515625 0.8125q0.40625 0.28125 0.984375 0.28125q0.578125 0 1.078125 -0.296875q0.515625 -0.296875 0.71875 -0.8125q0.21875 -0.515625 0.21875 -1.484375l0 -4.0625l1.28125 0l0 7.59375l-1.140625 0zm2.6511078 -2.265625l1.265625 -0.203125q0.109375 0.765625 0.59375 1.171875q0.5 0.40625 1.375 0.40625q0.890625 0 1.3125 -0.359375q0.4375 -0.359375 0.4375 -0.84375q0 -0.4375 -0.375 -0.6875q-0.265625 -0.171875 -1.3125 -0.4375q-1.421875 -0.359375 -1.96875 -0.609375q-0.546875 -0.265625 -0.828125 -0.734375q-0.28125 -0.46875 -0.28125 -1.015625q0 -0.515625 0.21875 -0.9375q0.234375 -0.4375 0.640625 -0.734375q0.296875 -0.21875 0.8125 -0.359375q0.53125 -0.15625 1.125 -0.15625q0.890625 0 1.5625 0.265625q0.671875 0.25 1.0 0.6875q0.328125 0.4375 0.4375 1.171875l-1.25 0.171875q-0.09375 -0.578125 -0.5 -0.90625q-0.40625 -0.34375 -1.15625 -0.34375q-0.890625 0 -1.28125 0.296875q-0.375 0.296875 -0.375 0.6875q0 0.25 0.15625 0.453125q0.15625 0.203125 0.5 0.34375q0.1875 0.078125 1.140625 0.328125q1.359375 0.359375 1.890625 0.59375q0.546875 0.234375 0.859375 0.6875q0.3125 0.4375 0.3125 1.09375q0 0.640625 -0.375 1.21875q-0.375 0.5625 -1.09375 0.875q-0.703125 0.3125 -1.59375 0.3125q-1.484375 0 -2.265625 -0.609375q-0.765625 -0.625 -0.984375 -1.828125z" fill-rule="nonzero"/><path fill="#000000" fill-opacity="0.0" d="m456.71127 65.35696l304.03152 0l0 35.46457l-304.03152 0z" fill-rule="evenodd"/><path fill="#000000" d="m467.24252 92.276955l0 -13.359375l9.015625 0l0 1.578125l-7.25 0l0 4.140625l6.265625 0l0 1.578125l-6.265625 0l0 6.0625l-1.765625 0zm17.411621 -1.1875q-0.921875 0.765625 -1.765625 1.09375q-0.828125 0.3125 -1.796875 0.3125q-1.59375 0 -2.453125 -0.78125q-0.859375 -0.78125 -0.859375 -1.984375q0 -0.71875 0.328125 -1.296875q0.328125 -0.59375 0.84375 -0.9375q0.53125 -0.359375 1.1875 -0.546875q0.46875 -0.125 1.453125 -0.25q1.984375 -0.234375 2.921875 -0.5625q0.015625 -0.34375 0.015625 -0.421875q0 -1.0 -0.46875 -1.421875q-0.625 -0.546875 -1.875 -0.546875q-1.15625 0 -1.703125 0.40625q-0.546875 0.40625 -0.8125 1.421875l-1.609375 -0.21875q0.21875 -1.015625 0.71875 -1.640625q0.5 -0.640625 1.453125 -0.984375q0.953125 -0.34375 2.1875 -0.34375q1.25 0 2.015625 0.296875q0.78125 0.28125 1.140625 0.734375q0.375 0.4375 0.515625 1.109375q0.078125 0.421875 0.078125 1.515625l0 2.1875q0 2.28125 0.109375 2.890625q0.109375 0.59375 0.40625 1.15625l-1.703125 0q-0.265625 -0.515625 -0.328125 -1.1875zm-0.140625 -3.671875q-0.890625 0.375 -2.671875 0.625q-1.015625 0.140625 -1.4375 0.328125q-0.421875 0.1875 -0.65625 0.53125q-0.21875 0.34375 -0.21875 0.78125q0 0.65625 0.5 1.09375q0.5 0.4375 1.453125 0.4375q0.9375 0 1.671875 -0.40625q0.75 -0.421875 1.09375 -1.140625q0.265625 -0.5625 0.265625 -1.640625l0 -0.609375zm4.203827 4.859375l0 -13.359375l1.640625 0l0 4.796875q1.140625 -1.328125 2.890625 -1.328125q1.078125 0 1.859375 0.421875q0.796875 0.421875 1.140625 1.171875q0.34375 0.75 0.34375 2.171875l0 6.125l-1.640625 0l0 -6.125q0 -1.234375 -0.53125 -1.796875q-0.53125 -0.5625 -1.515625 -0.5625q-0.71875 0 -1.359375 0.390625q-0.640625 0.375 -0.921875 1.015625q-0.265625 0.640625 -0.265625 1.78125l0 5.296875l-1.640625 0zm10.360107 0l0 -9.671875l1.46875 0l0 1.46875q0.5625 -1.03125 1.03125 -1.359375q0.484375 -0.328125 1.0625 -0.328125q0.828125 0 1.6875 0.53125l-0.5625 1.515625q-0.609375 -0.359375 -1.203125 -0.359375q-0.546875 0 -0.96875 0.328125q-0.421875 0.328125 -0.609375 0.890625q-0.28125 0.875 -0.28125 1.921875l0 5.0625l-1.625 0zm12.853302 -3.109375l1.6874695 0.203125q-0.40625 1.484375 -1.484375 2.3125q-1.0780945 0.8125 -2.7655945 0.8125q-2.125 0 -3.375 -1.296875q-1.234375 -1.3125 -1.234375 -3.671875q0 -2.453125 1.25 -3.796875q1.265625 -1.34375 3.265625 -1.34375q1.9375 0 3.1562195 1.328125q1.234375 1.3125 1.234375 3.703125q0 0.15625 0 0.4375l-7.2187195 0q0.09375 1.59375 0.90625 2.453125q0.8125 0.84375 2.015625 0.84375q0.90625 0 1.546875 -0.46875q0.640625 -0.484375 1.015625 -1.515625zm-5.390625 -2.65625l5.40625 0q-0.109375 -1.21875 -0.625 -1.828125q-0.78125 -0.953125 -2.03125 -0.953125q-1.125 0 -1.90625 0.765625q-0.765625 0.75 -0.84375 2.015625zm9.141327 5.765625l0 -9.671875l1.46875 0l0 1.375q1.0625 -1.59375 3.078125 -1.59375q0.875 0 1.609375 0.3125q0.734375 0.3125 1.09375 0.828125q0.375 0.5 0.515625 1.203125q0.09375 0.453125 0.09375 1.59375l0 5.953125l-1.640625 0l0 -5.890625q0 -1.0 -0.203125 -1.484375q-0.1875 -0.5 -0.671875 -0.796875q-0.484375 -0.296875 -1.140625 -0.296875q-1.046875 0 -1.8125 0.671875q-0.75 0.65625 -0.75 2.515625l0 5.28125l-1.640625 0zm10.375732 0l0 -13.359375l1.640625 0l0 4.796875q1.140625 -1.328125 2.890625 -1.328125q1.078125 0 1.859375 0.421875q0.796875 0.421875 1.140625 1.171875q0.34375 0.75 0.34375 2.171875l0 6.125l-1.640625 0l0 -6.125q0 -1.234375 -0.53125 -1.796875q-0.53125 -0.5625 -1.515625 -0.5625q-0.71875 0 -1.359375 0.390625q-0.640625 0.375 -0.921875 1.015625q-0.265625 0.640625 -0.265625 1.78125l0 5.296875l-1.640625 0zm17.000732 -3.109375l1.6875 0.203125q-0.40625 1.484375 -1.484375 2.3125q-1.078125 0.8125 -2.765625 0.8125q-2.125 0 -3.375 -1.296875q-1.234375 -1.3125 -1.234375 -3.671875q0 -2.453125 1.25 -3.796875q1.265625 -1.34375 3.265625 -1.34375q1.9375 0 3.15625 1.328125q1.234375 1.3125 1.234375 3.703125q0 0.15625 0 0.4375l-7.21875 0q0.09375 1.59375 0.90625 2.453125q0.8125 0.84375 2.015625 0.84375q0.90625 0 1.546875 -0.46875q0.640625 -0.484375 1.015625 -1.515625zm-5.390625 -2.65625l5.40625 0q-0.109375 -1.21875 -0.625 -1.828125q-0.78125 -0.953125 -2.03125 -0.953125q-1.125 0 -1.90625 0.765625q-0.765625 0.75 -0.84375 2.015625zm9.141296 -5.703125l0 -1.890625l1.640625 0l0 1.890625l-1.640625 0zm0 11.46875l0 -9.671875l1.640625 0l0 9.671875l-1.640625 0zm7.7229614 -1.46875l0.234375 1.453125q-0.6875 0.140625 -1.234375 0.140625q-0.890625 0 -1.390625 -0.28125q-0.484375 -0.28125 -0.6875 -0.734375q-0.203125 -0.46875 -0.203125 -1.9375l0 -5.578125l-1.203125 0l0 -1.265625l1.203125 0l0 -2.390625l1.625 -0.984375l0 3.375l1.65625 0l0 1.265625l-1.65625 0l0 5.671875q0 0.6875 0.078125 0.890625q0.09375 0.203125 0.28125 0.328125q0.203125 0.109375 0.578125 0.109375q0.265625 0 0.71875 -0.0625z" fill-rule="nonzero"/><path fill="#000000" fill-opacity="0.0" d="m456.71127 105.55905l176.6929 0l0 138.70866l-176.6929 0z" fill-rule="evenodd"/><path fill="#000000" d="m466.32065 125.87343l1.296875 -0.171875q0.21875 1.09375 0.75 1.578125q0.53125 0.484375 1.296875 0.484375q0.90625 0 1.53125 -0.625q0.640625 -0.640625 0.640625 -1.5625q0 -0.890625 -0.59375 -1.46875q-0.578125 -0.578125 -1.46875 -0.578125q-0.359375 0 -0.90625 0.140625l0.140625 -1.125q0.125 0.015625 0.203125 0.015625q0.828125 0 1.484375 -0.421875q0.65625 -0.4375 0.65625 -1.34375q0 -0.703125 -0.484375 -1.15625q-0.46875 -0.46875 -1.234375 -0.46875q-0.75 0 -1.25 0.46875q-0.5 0.46875 -0.640625 1.421875l-1.28125 -0.234375q0.234375 -1.296875 1.0625 -2.0q0.84375 -0.71875 2.09375 -0.71875q0.859375 0 1.578125 0.375q0.71875 0.359375 1.09375 1.0q0.390625 0.640625 0.390625 1.34375q0 0.6875 -0.375 1.25q-0.359375 0.546875 -1.0625 0.875q0.921875 0.21875 1.4375 0.90625q0.515625 0.671875 0.515625 1.6875q0 1.375 -1.0 2.328125q-1.0 0.953125 -2.53125 0.953125q-1.390625 0 -2.296875 -0.8125q-0.90625 -0.828125 -1.046875 -2.140625zm14.916748 1.53125l0 1.234375l-6.9375 0q-0.015625 -0.46875 0.15625 -0.890625q0.265625 -0.71875 0.84375 -1.40625q0.59375 -0.6875 1.6875 -1.578125q1.71875 -1.40625 2.3125 -2.21875q0.609375 -0.828125 0.609375 -1.5625q0 -0.765625 -0.5625 -1.28125q-0.546875 -0.53125 -1.421875 -0.53125q-0.921875 0 -1.484375 0.5625q-0.5625 0.5625 -0.5625 1.546875l-1.328125 -0.140625q0.140625 -1.484375 1.015625 -2.25q0.890625 -0.78125 2.390625 -0.78125q1.515625 0 2.390625 0.84375q0.875 0.828125 0.875 2.0625q0 0.640625 -0.265625 1.25q-0.25 0.59375 -0.84375 1.265625q-0.59375 0.671875 -1.984375 1.859375q-1.15625 0.96875 -1.484375 1.3125q-0.328125 0.34375 -0.546875 0.703125l5.140625 0z" fill-rule="nonzero"/></g></svg>